<?xml version="1.0" encoding="utf-8"?>
<!-- Generator: Adobe Illustrator 25.4.1, SVG Export Plug-In . SVG Version: 6.00 Build 0)  -->
<svg version="1.1" id="Layer_1" xmlns="http://www.w3.org/2000/svg" xmlns:xlink="http://www.w3.org/1999/xlink" x="0px" y="0px"
	 viewBox="0 0 220 45" style="enable-background:new 0 0 220 45;" xml:space="preserve">
<style type="text/css">
	.st0{fill:#FFFFFF;}
</style>
<g>
	<g>
		<path class="st0" d="M21.1,36L21.1,36c0.2,0.2,0.2,0.6,0,0.9l-3.2,3.2c-0.2,0.2-0.6,0.2-0.9,0l0,0c-0.2-0.2-0.2-0.6,0-0.9l3.2-3.2
			C20.5,35.8,20.9,35.8,21.1,36z"/>
		<path class="st0" d="M17.1,29.3L17.1,29.3c0.2-0.2,0.6-0.2,0.9,0l3.2,3.2c0.2,0.2,0.2,0.6,0,0.9l0,0c-0.2,0.2-0.6,0.2-0.9,0
			l-3.2-3.2C16.8,30,16.8,29.6,17.1,29.3z"/>
		<path class="st0" d="M23.7,36L23.7,36c0.2-0.2,0.6-0.2,0.9,0l3.2,3.2c0.2,0.2,0.2,0.6,0,0.9l0,0c-0.2,0.2-0.6,0.2-0.9,0l-3.2-3.2
			C23.5,36.7,23.5,36.3,23.7,36z"/>
		<path class="st0" d="M27.8,29.3L27.8,29.3c0.2,0.2,0.2,0.6,0,0.9l-3.2,3.2c-0.2,0.2-0.6,0.2-0.9,0l0,0c-0.2-0.2-0.2-0.6,0-0.9
			l3.2-3.2C27.2,29.1,27.5,29.1,27.8,29.3z"/>
	</g>
	<g>
		<path class="st0" d="M21.1,11.6L21.1,11.6c0.2,0.2,0.2,0.6,0,0.9l-3.2,3.2c-0.2,0.2-0.6,0.2-0.9,0l0,0c-0.2-0.2-0.2-0.6,0-0.9
			l3.2-3.2C20.5,11.4,20.9,11.4,21.1,11.6z"/>
		<path class="st0" d="M17.1,4.9L17.1,4.9c0.2-0.2,0.6-0.2,0.9,0l3.2,3.2c0.2,0.2,0.2,0.6,0,0.9l0,0c-0.2,0.2-0.6,0.2-0.9,0
			l-3.2-3.2C16.8,5.6,16.8,5.2,17.1,4.9z"/>
		<path class="st0" d="M23.7,11.6L23.7,11.6c0.2-0.2,0.6-0.2,0.9,0l3.2,3.2c0.2,0.2,0.2,0.6,0,0.9l0,0c-0.2,0.2-0.6,0.2-0.9,0
			l-3.2-3.2C23.5,12.2,23.5,11.9,23.7,11.6z"/>
		<path class="st0" d="M27.8,4.9L27.8,4.9c0.2,0.2,0.2,0.6,0,0.9L24.6,9c-0.2,0.2-0.6,0.2-0.9,0l0,0c-0.2-0.2-0.2-0.6,0-0.9l3.2-3.2
			C27.2,4.7,27.5,4.7,27.8,4.9z"/>
	</g>
</g>
<g>
	<g>
		<path class="st0" d="M36,23.8L36,23.8c0.2-0.2,0.6-0.2,0.9,0L40,27c0.2,0.2,0.2,0.6,0,0.9l0,0c-0.2,0.2-0.6,0.2-0.9,0L36,24.7
			C35.7,24.5,35.7,24.1,36,23.8z"/>
		<path class="st0" d="M29.3,27.9L29.3,27.9c-0.2-0.2-0.2-0.6,0-0.9l3.2-3.2c0.2-0.2,0.6-0.2,0.9,0l0,0c0.2,0.2,0.2,0.6,0,0.9
			l-3.2,3.2C29.9,28.1,29.5,28.1,29.3,27.9z"/>
		<path class="st0" d="M36,21.2L36,21.2c-0.2-0.2-0.2-0.6,0-0.9l3.2-3.2c0.2-0.2,0.6-0.2,0.9,0l0,0c0.2,0.2,0.2,0.6,0,0.9l-3.2,3.2
			C36.6,21.4,36.2,21.4,36,21.2z"/>
		<path class="st0" d="M29.3,17.1L29.3,17.1c0.2-0.2,0.6-0.2,0.9,0l3.2,3.2c0.2,0.2,0.2,0.6,0,0.9l0,0c-0.2,0.2-0.6,0.2-0.9,0
			L29.3,18C29,17.8,29,17.4,29.3,17.1z"/>
	</g>
	<g>
		<path class="st0" d="M11.5,23.8L11.5,23.8c0.2-0.2,0.6-0.2,0.9,0l3.2,3.2c0.2,0.2,0.2,0.6,0,0.9l0,0c-0.2,0.2-0.6,0.2-0.9,0
			l-3.2-3.2C11.3,24.5,11.3,24.1,11.5,23.8z"/>
		<path class="st0" d="M4.9,27.9L4.9,27.9c-0.2-0.2-0.2-0.6,0-0.9L8,23.8c0.2-0.2,0.6-0.2,0.9,0l0,0c0.2,0.2,0.2,0.6,0,0.9l-3.2,3.2
			C5.5,28.1,5.1,28.1,4.9,27.9z"/>
		<path class="st0" d="M11.5,21.2L11.5,21.2c-0.2-0.2-0.2-0.6,0-0.9l3.2-3.2c0.2-0.2,0.6-0.2,0.9,0l0,0c0.2,0.2,0.2,0.6,0,0.9
			l-3.2,3.2C12.2,21.4,11.8,21.4,11.5,21.2z"/>
		<path class="st0" d="M4.9,17.1L4.9,17.1c0.2-0.2,0.6-0.2,0.9,0L9,20.3c0.2,0.2,0.2,0.6,0,0.9l0,0c-0.2,0.2-0.6,0.2-0.9,0L4.9,18
			C4.6,17.8,4.6,17.4,4.9,17.1z"/>
	</g>
</g>
<g>
	<path class="st0" d="M51,28.2l0.7-0.6c1.5,1.9,3.4,2.8,6.1,2.8c3,0,5-1.2,5-3.6c0-2.1-1.5-2.7-3.8-3.1l-2.4-0.3
		c-2.6-0.4-4.9-1.1-4.9-3.9c0-3,2.5-4.2,5.6-4.2c3,0,4.7,1.1,6,2.4l-0.7,0.7c-1-1.1-2.4-2.2-5.3-2.2c-2.8,0-4.5,1-4.5,3.3
		c0,2.1,1.5,2.7,3.8,3l2.4,0.4c2.6,0.4,4.9,1.1,4.9,3.9c0,3.1-2.6,4.5-6,4.5C54.9,31.3,52.7,30.2,51,28.2z"/>
	<path class="st0" d="M68.5,30h5.2c0.4,0,0.7-0.3,0.7-0.7v-12c0-0.4-0.3-0.7-0.7-0.7h-5.2v-0.9h6.2c0.4,0,0.7,0.3,0.7,0.7v12.9
		c0,0.4,0.3,0.7,0.7,0.7h4.8v0.9H68.5V30z M73.9,10V9.7c0-0.5,0.3-0.9,1.1-0.9c0.8,0,1.1,0.4,1.1,0.9V10c0,0.5-0.3,0.9-1.1,0.9
		C74.2,10.9,73.9,10.5,73.9,10z"/>
	<path class="st0" d="M85.5,30h5c0.4,0,0.7-0.3,0.7-0.7V10.6c0-0.4-0.3-0.7-0.7-0.7h-5V9h6.1c0.4,0,0.7,0.3,0.7,0.7v19.5
		c0,0.4,0.3,0.7,0.7,0.7h5v0.9H85.5V30z"/>
	<path class="st0" d="M106.4,30.9c-0.3,0-0.6-0.2-0.7-0.5l-5.5-14.8h1.1l5.2,14.3h0.1l5.2-14.3h1l-5.5,14.8
		c-0.1,0.3-0.4,0.5-0.7,0.5H106.4z"/>
	<path class="st0" d="M116.7,23.3c0-5.2,2.5-8,6.4-8c4.1,0,6.3,3.1,6.3,7.7v0.4h-11.6v0.8c0,3.8,2,6.2,5.4,6.2
		c2.4,0,4.2-1.2,5.1-3.4l0.8,0.4c-0.9,2.4-2.9,3.9-5.9,3.9C119.1,31.3,116.7,28.5,116.7,23.3z M117.8,22.4v0.1h10.5v-0.1
		c0-3.8-1.9-6.2-5.2-6.2S117.8,18.6,117.8,22.4z"/>
	<path class="st0" d="M133.2,30h4.4c0.4,0,0.7-0.3,0.7-0.7v-12c0-0.4-0.3-0.7-0.7-0.7h-4.4v-0.9h5.4c0.4,0,0.7,0.3,0.7,0.7v2.4h0.1
		c0.7-1.7,2-3.2,4.8-3.2h3.1v1H144c-2.6,0-4.7,1.7-4.7,4.8v7.9c0,0.4,0.3,0.7,0.7,0.7h5.8v0.9h-12.7L133.2,30L133.2,30z"/>
	<path class="st0" d="M150.5,23.3c0-5.2,2.5-8,6.4-8c4.1,0,6.3,3.1,6.3,7.7v0.4h-11.6v0.8c0,3.8,2,6.2,5.4,6.2
		c2.4,0,4.2-1.2,5.1-3.4l0.8,0.4c-0.9,2.4-2.9,3.9-5.9,3.9C152.9,31.3,150.5,28.5,150.5,23.3z M151.6,22.4v0.1h10.5v-0.1
		c0-3.8-1.9-6.2-5.2-6.2S151.6,18.6,151.6,22.4z"/>
	<path class="st0" d="M179.1,15.6h1.1l-8.4,20.2c-0.3,0.7-0.7,1-1.6,1h-2.8v-0.9h2.9c0.3,0,0.6-0.2,0.7-0.5l2-4.8
		c0.1-0.2,0.1-0.4,0-0.6l-6-14.5h1.1l5.5,13.5h0.1L179.1,15.6z"/>
	<path class="st0" d="M183.7,23.3c0-5.2,2.5-8,6.4-8c4.1,0,6.3,3.1,6.3,7.7v0.4h-11.6v0.8c0,3.8,2,6.2,5.4,6.2
		c2.4,0,4.2-1.2,5.1-3.4l0.8,0.4c-0.9,2.4-2.9,3.9-5.9,3.9C186.2,31.3,183.7,28.5,183.7,23.3z M184.9,22.4v0.1h10.5v-0.1
		c0-3.8-1.9-6.2-5.2-6.2S184.9,18.6,184.9,22.4z"/>
	<path class="st0" d="M201,28.2l0.7-0.6c1.5,1.9,3.4,2.8,6.1,2.8c3,0,5-1.2,5-3.6c0-2.1-1.5-2.7-3.8-3.1l-2.4-0.3
		c-2.6-0.4-4.9-1.1-4.9-3.9c0-3,2.5-4.2,5.6-4.2c3,0,4.7,1.1,6,2.4l-0.7,0.7c-1-1.1-2.4-2.2-5.3-2.2c-2.8,0-4.5,1-4.5,3.3
		c0,2.1,1.5,2.7,3.8,3l2.4,0.4c2.6,0.4,4.9,1.1,4.9,3.9c0,3.1-2.6,4.5-6,4.5C204.8,31.3,202.6,30.2,201,28.2z"/>
</g>
</svg>
