<?xml version="1.0" encoding="utf-8"?>
<!-- Generator: Adobe Illustrator 25.4.1, SVG Export Plug-In . SVG Version: 6.00 Build 0)  -->
<svg version="1.1" id="Layer_1" xmlns="http://www.w3.org/2000/svg" xmlns:xlink="http://www.w3.org/1999/xlink" x="0px" y="0px"
	 viewBox="0 0 45 45" style="enable-background:new 0 0 45 45;" xml:space="preserve">
<style type="text/css">
	.st0{fill:#FFFFFF;}
</style>
<g>
	<g>
		<path class="st0" d="M31.1,33L31.1,33c0.3,0,0.6,0.3,0.6,0.6v4.5c0,0.3-0.3,0.6-0.6,0.6l0,0c-0.3,0-0.6-0.3-0.6-0.6v-4.5
			C30.5,33.3,30.8,33,31.1,33z"/>
		<path class="st0" d="M23.5,31.1L23.5,31.1c0-0.3,0.3-0.6,0.6-0.6h4.5c0.3,0,0.6,0.3,0.6,0.6l0,0c0,0.3-0.3,0.6-0.6,0.6h-4.5
			C23.8,31.7,23.5,31.5,23.5,31.1z"/>
		<path class="st0" d="M33,31.1L33,31.1c0-0.3,0.3-0.6,0.6-0.6h4.5c0.3,0,0.6,0.3,0.6,0.6l0,0c0,0.3-0.3,0.6-0.6,0.6h-4.5
			C33.3,31.7,33,31.5,33,31.1z"/>
		<path class="st0" d="M31.1,23.5L31.1,23.5c0.3,0,0.6,0.3,0.6,0.6v4.5c0,0.3-0.3,0.6-0.6,0.6l0,0c-0.3,0-0.6-0.3-0.6-0.6v-4.5
			C30.5,23.8,30.8,23.5,31.1,23.5z"/>
	</g>
	<g>
		<path class="st0" d="M13.9,15.7L13.9,15.7c0.3,0,0.6,0.3,0.6,0.6v4.5c0,0.3-0.3,0.6-0.6,0.6l0,0c-0.3,0-0.6-0.3-0.6-0.6v-4.5
			C13.3,16,13.5,15.7,13.9,15.7z"/>
		<path class="st0" d="M6.3,13.9L6.3,13.9c0-0.3,0.3-0.6,0.6-0.6h4.5c0.3,0,0.6,0.3,0.6,0.6l0,0c0,0.3-0.3,0.6-0.6,0.6H6.9
			C6.6,14.5,6.3,14.2,6.3,13.9z"/>
		<path class="st0" d="M15.7,13.9L15.7,13.9c0-0.3,0.3-0.6,0.6-0.6h4.5c0.3,0,0.6,0.3,0.6,0.6l0,0c0,0.3-0.3,0.6-0.6,0.6h-4.5
			C16,14.5,15.7,14.2,15.7,13.9z"/>
		<path class="st0" d="M13.9,6.3L13.9,6.3c0.3,0,0.6,0.3,0.6,0.6v4.5c0,0.3-0.3,0.6-0.6,0.6l0,0c-0.3,0-0.6-0.3-0.6-0.6V6.9
			C13.3,6.6,13.5,6.3,13.9,6.3z"/>
	</g>
</g>
<g>
	<g>
		<path class="st0" d="M33,13.9L33,13.9c0-0.3,0.3-0.6,0.6-0.6h4.5c0.3,0,0.6,0.3,0.6,0.6l0,0c0,0.3-0.3,0.6-0.6,0.6h-4.5
			C33.3,14.5,33,14.2,33,13.9z"/>
		<path class="st0" d="M31.1,21.5L31.1,21.5c-0.3,0-0.6-0.3-0.6-0.6v-4.5c0-0.3,0.3-0.6,0.6-0.6l0,0c0.3,0,0.6,0.3,0.6,0.6v4.5
			C31.7,21.2,31.5,21.5,31.1,21.5z"/>
		<path class="st0" d="M31.1,12L31.1,12c-0.3,0-0.6-0.3-0.6-0.6V6.9c0-0.3,0.3-0.6,0.6-0.6l0,0c0.3,0,0.6,0.3,0.6,0.6v4.5
			C31.7,11.7,31.5,12,31.1,12z"/>
		<path class="st0" d="M23.5,13.9L23.5,13.9c0-0.3,0.3-0.6,0.6-0.6h4.5c0.3,0,0.6,0.3,0.6,0.6l0,0c0,0.3-0.3,0.6-0.6,0.6h-4.5
			C23.8,14.5,23.5,14.2,23.5,13.9z"/>
	</g>
	<g>
		<path class="st0" d="M15.7,31.1L15.7,31.1c0-0.3,0.3-0.6,0.6-0.6h4.5c0.3,0,0.6,0.3,0.6,0.6l0,0c0,0.3-0.3,0.6-0.6,0.6h-4.5
			C16,31.7,15.7,31.5,15.7,31.1z"/>
		<path class="st0" d="M13.9,38.7L13.9,38.7c-0.3,0-0.6-0.3-0.6-0.6v-4.5c0-0.3,0.3-0.6,0.6-0.6l0,0c0.3,0,0.6,0.3,0.6,0.6v4.5
			C14.5,38.4,14.2,38.7,13.9,38.7z"/>
		<path class="st0" d="M13.9,29.3L13.9,29.3c-0.3,0-0.6-0.3-0.6-0.6v-4.5c0-0.3,0.3-0.6,0.6-0.6l0,0c0.3,0,0.6,0.3,0.6,0.6v4.5
			C14.5,29,14.2,29.3,13.9,29.3z"/>
		<path class="st0" d="M6.3,31.1L6.3,31.1c0-0.3,0.3-0.6,0.6-0.6h4.5c0.3,0,0.6,0.3,0.6,0.6l0,0c0,0.3-0.3,0.6-0.6,0.6H6.9
			C6.6,31.7,6.3,31.5,6.3,31.1z"/>
	</g>
</g>
</svg>
