<?xml version="1.0" encoding="utf-8"?>
<!-- Generator: Adobe Illustrator 25.4.1, SVG Export Plug-In . SVG Version: 6.00 Build 0)  -->
<svg version="1.1" id="Layer_1" xmlns="http://www.w3.org/2000/svg" xmlns:xlink="http://www.w3.org/1999/xlink" x="0px" y="0px"
	 viewBox="0 0 369 369" style="enable-background:new 0 0 369 369;" xml:space="preserve">
<style type="text/css">
	.st0{fill:#FFFFFF;}
</style>
<g>
	<path class="st0" d="M244.5,179.4c-8.8-11.7-32.6-39.2-60.6-39.2s-51.8,27.5-60.6,39.2c-2.3,3-2.3,7.2,0,10.3
		c8.8,11.7,32.6,39.2,60.6,39.2s51.8-27.5,60.6-39.2C246.8,186.6,246.8,182.4,244.5,179.4z M183.9,218.8
		c-23.3,0-44.9-25.1-51.9-34.3c7.1-9.2,28.7-34.3,51.9-34.3s44.9,25.1,51.9,34.3C228.8,193.7,207.2,218.8,183.9,218.8z M197.2,171.2
		c-7.3-7.3-19.2-7.3-26.5,0s-7.3,19.2,0,26.5s19.2,7.3,26.5,0S204.5,178.6,197.2,171.2z"/>
	<g>
		<g>
			<g>
				<path class="st0" d="M171.2,321.1L171.2,321.1c2.4,2.4,2.4,6.4,0,8.8l-32,32c-2.4,2.4-6.4,2.4-8.8,0l0,0c-2.4-2.4-2.4-6.4,0-8.8
					l32-32C164.8,318.7,168.7,318.7,171.2,321.1z"/>
				<path class="st0" d="M130.3,253.6L130.3,253.6c2.4-2.4,6.4-2.4,8.8,0l32,32c2.4,2.4,2.4,6.4,0,8.8l0,0c-2.4,2.4-6.4,2.4-8.8,0
					l-32-32C127.9,260,127.9,256,130.3,253.6z"/>
				<path class="st0" d="M197.8,321.1L197.8,321.1c2.4-2.4,6.4-2.4,8.8,0l32,32c2.4,2.4,2.4,6.4,0,8.8l0,0c-2.4,2.4-6.4,2.4-8.8,0
					l-32-32C195.4,327.5,195.4,323.5,197.8,321.1z"/>
				<path class="st0" d="M238.7,253.6L238.7,253.6c2.4,2.4,2.4,6.4,0,8.8l-32,32c-2.4,2.4-6.4,2.4-8.8,0l0,0c-2.4-2.4-2.4-6.4,0-8.8
					l32-32C232.3,251.2,236.2,251.2,238.7,253.6z"/>
			</g>
			<g>
				<path class="st0" d="M171.2,74.6L171.2,74.6c2.4,2.4,2.4,6.4,0,8.8l-32,32c-2.4,2.4-6.4,2.4-8.8,0l0,0c-2.4-2.4-2.4-6.4,0-8.8
					l32-32C164.8,72.1,168.7,72.1,171.2,74.6z"/>
				<path class="st0" d="M130.3,7.1L130.3,7.1c2.4-2.4,6.4-2.4,8.8,0l32,32c2.4,2.4,2.4,6.4,0,8.8l0,0c-2.4,2.4-6.4,2.4-8.8,0
					l-32-32C127.9,13.5,127.9,9.5,130.3,7.1z"/>
				<path class="st0" d="M197.8,74.6L197.8,74.6c2.4-2.4,6.4-2.4,8.8,0l32,32c2.4,2.4,2.4,6.4,0,8.8l0,0c-2.4,2.4-6.4,2.4-8.8,0
					l-32-32C195.4,80.9,195.4,77,197.8,74.6z"/>
				<path class="st0" d="M238.7,7.1L238.7,7.1c2.4,2.4,2.4,6.4,0,8.8l-32,32c-2.4,2.4-6.4,2.4-8.8,0l0,0c-2.4-2.4-2.4-6.4,0-8.8
					l32-32C232.3,4.6,236.2,4.6,238.7,7.1z"/>
			</g>
		</g>
		<g>
			<g>
				<path class="st0" d="M321.1,197.8L321.1,197.8c2.4-2.4,6.4-2.4,8.8,0l32,32c2.4,2.4,2.4,6.4,0,8.8l0,0c-2.4,2.4-6.4,2.4-8.8,0
					l-32-32C318.7,204.2,318.7,200.3,321.1,197.8z"/>
				<path class="st0" d="M253.6,238.7L253.6,238.7c-2.4-2.4-2.4-6.4,0-8.8l32-32c2.4-2.4,6.4-2.4,8.8,0l0,0c2.4,2.4,2.4,6.4,0,8.8
					l-32,32C260,241.1,256,241.1,253.6,238.7z"/>
				<path class="st0" d="M321.1,171.2L321.1,171.2c-2.4-2.4-2.4-6.4,0-8.8l32-32c2.4-2.4,6.4-2.4,8.8,0l0,0c2.4,2.4,2.4,6.4,0,8.8
					l-32,32C327.5,173.6,323.5,173.6,321.1,171.2z"/>
				<path class="st0" d="M253.6,130.3L253.6,130.3c2.4-2.4,6.4-2.4,8.8,0l32,32c2.4,2.4,2.4,6.4,0,8.8l0,0c-2.4,2.4-6.4,2.4-8.8,0
					l-32-32C251.2,136.7,251.2,132.8,253.6,130.3z"/>
			</g>
			<g>
				<path class="st0" d="M74.6,197.8L74.6,197.8c2.4-2.4,6.4-2.4,8.8,0l32,32c2.4,2.4,2.4,6.4,0,8.8l0,0c-2.4,2.4-6.4,2.4-8.8,0
					l-32-32C72.1,204.2,72.1,200.3,74.6,197.8z"/>
				<path class="st0" d="M7.1,238.7L7.1,238.7c-2.4-2.4-2.4-6.4,0-8.8l32-32c2.4-2.4,6.4-2.4,8.8,0l0,0c2.4,2.4,2.4,6.4,0,8.8
					l-32,32C13.5,241.1,9.5,241.1,7.1,238.7z"/>
				<path class="st0" d="M74.6,171.2L74.6,171.2c-2.4-2.4-2.4-6.4,0-8.8l32-32c2.4-2.4,6.4-2.4,8.8,0l0,0c2.4,2.4,2.4,6.4,0,8.8
					l-32,32C80.9,173.6,77,173.6,74.6,171.2z"/>
				<path class="st0" d="M7.1,130.3L7.1,130.3c2.4-2.4,6.4-2.4,8.8,0l32,32c2.4,2.4,2.4,6.4,0,8.8l0,0c-2.4,2.4-6.4,2.4-8.8,0
					l-32-32C4.6,136.7,4.6,132.8,7.1,130.3z"/>
			</g>
		</g>
	</g>
</g>
</svg>
