<?xml version="1.0" encoding="utf-8"?>
<!-- Generator: Adobe Illustrator 25.3.1, SVG Export Plug-In . SVG Version: 6.00 Build 0)  -->
<svg version="1.1" id="Layer_1" xmlns="http://www.w3.org/2000/svg" xmlns:xlink="http://www.w3.org/1999/xlink" x="0px" y="0px"
	 viewBox="0 0 1029.4 1029.4" style="enable-background:new 0 0 1029.4 1029.4;" xml:space="preserve">
<style type="text/css">
	.st0{enable-background:new    ;}
	.st1{fill:#231F20;}
	.st2{fill:none;stroke:#231F20;stroke-width:2.5;stroke-linecap:round;stroke-miterlimit:10;}
	.st3{fill:none;stroke:#000000;stroke-width:2.5;stroke-miterlimit:10;}
</style>
<g id="EXPORT">
	<g class="st0">
		<path class="st1" d="M508.9,71.4h-0.3v24.8h-3.2V66.9h5l10,24.6h0.3V66.9h3.2v29.3h-5L508.9,71.4z"/>
	</g>
	<g class="st0">
		<path class="st1" d="M425.5,88.4c4-0.7,5.7-3.1,5.2-5.9l-0.1-0.3c-0.5-3.1-3-4.3-6.1-3.7c-3.1,0.5-4.6,2.3-5.4,4.8l-3-1.5
			c1.1-2.6,3.2-5.4,7.9-6.3c4.9-0.9,9.3,1,10.1,5.7c0.7,3.7-1.4,6.4-4.4,7.7l0,0.2c3.3,0.1,6.7,1.8,7.5,6.2c0.9,5-2.5,9.1-8.5,10.2
			c-5.1,0.9-8.1-1.1-10.3-3.3l2.3-2.4c1.9,2,3.9,3.3,7.6,2.7c4.1-0.7,6-3.1,5.4-6.5l-0.1-0.3c-0.6-3.4-3.1-5-7.3-4.3l-3.4,0.6
			l-0.5-3L425.5,88.4z"/>
		<path class="st1" d="M458.2,73.1l-12.9,2.3l1.1,11.2l0.3-0.1c1.1-2.2,2.4-3.7,5.5-4.2c5-0.9,9.3,1.8,10.3,7.4
			c1,5.6-2,10.2-8.2,11.3c-4.9,0.9-7.8-1.1-10.1-3.3l2.3-2.4c1.9,2,3.8,3.3,7.3,2.7c4-0.7,5.8-3.4,5.1-7.2l-0.1-0.3
			c-0.7-3.8-3.3-5.7-7.3-5c-2.7,0.5-3.9,1.8-4.9,3.4l-3,0.1L442,72.8l15.7-2.8L458.2,73.1z"/>
	</g>
	<g class="st0">
		<path class="st1" d="M352.7,109.2c3.8-1.4,5.1-4,4.1-6.7l-0.1-0.3c-1.1-2.9-3.7-3.7-6.7-2.6c-2.9,1.1-4.1,3.1-4.5,5.6l-3.2-1
			c0.6-2.7,2.2-5.9,6.7-7.5c4.7-1.7,9.4-0.6,11,3.9c1.3,3.6-0.3,6.5-3,8.4l0.1,0.2c3.3-0.5,6.9,0.6,8.4,4.8
			c1.7,4.7-0.9,9.4-6.6,11.5c-4.9,1.8-8.2,0.3-10.7-1.4l1.8-2.8c2.3,1.6,4.4,2.6,7.9,1.3c3.9-1.4,5.3-4.1,4.2-7.4l-0.1-0.3
			c-1.2-3.2-3.9-4.4-7.9-2.9l-3.3,1.2l-1-2.8L352.7,109.2z"/>
		<path class="st1" d="M386.4,114.9l-2-5.4l-13.6,4.9l-1.1-2.9l4.9-23.6l4.8-1.8l7.1,19.4l4.1-1.5l1,2.7l-4.1,1.5l2,5.4L386.4,114.9
			z M372.8,110.7l10.6-3.9L377.3,90l-0.2,0.1L372.8,110.7z"/>
	</g>
	<g class="st0">
		<path class="st1" d="M284.9,143c3.5-2,4.3-4.9,2.9-7.3l-0.1-0.3c-1.6-2.7-4.3-3-7-1.4c-2.7,1.6-3.6,3.8-3.5,6.3l-3.3-0.4
			c0.1-2.8,1.2-6.2,5.4-8.6c4.3-2.5,9.1-2.2,11.5,1.9c1.9,3.3,0.8,6.5-1.5,8.8l0.1,0.1c3.1-1.1,7-0.6,9.2,3.3
			c2.5,4.4,0.8,9.4-4.5,12.5c-4.5,2.6-8,1.8-10.9,0.5l1.3-3.1c2.5,1.2,4.8,1.8,8-0.1c3.6-2.1,4.6-5,2.8-8l-0.2-0.3
			c-1.7-3-4.6-3.7-8.4-1.5l-3,1.7l-1.5-2.6L284.9,143z"/>
		<path class="st1" d="M306.9,130.4c3.5-2,4.3-4.9,2.9-7.3l-0.1-0.3c-1.6-2.7-4.3-3-7-1.4c-2.7,1.6-3.6,3.8-3.5,6.3l-3.3-0.4
			c0.1-2.8,1.2-6.2,5.4-8.6c4.3-2.5,9.1-2.2,11.5,1.9c1.9,3.3,0.8,6.5-1.5,8.8l0.1,0.1c3.1-1.1,7-0.6,9.2,3.3
			c2.5,4.4,0.8,9.4-4.5,12.5c-4.5,2.6-8,1.8-10.9,0.5l1.3-3.1c2.5,1.2,4.8,1.8,8-0.1c3.6-2.1,4.6-5,2.8-8l-0.2-0.3
			c-1.7-3-4.6-3.7-8.4-1.5l-3,1.7l-1.5-2.6L306.9,130.4z"/>
	</g>
	<g class="st0">
		<path class="st1" d="M224.2,188.6c3.1-2.6,3.4-5.5,1.6-7.7l-0.2-0.2c-2-2.4-4.7-2.2-7.2-0.2c-2.4,2-2.8,4.3-2.4,6.8l-3.3,0.1
			c-0.3-2.8,0.1-6.3,3.8-9.4c3.8-3.2,8.6-3.7,11.7-0.1c2.4,2.9,1.9,6.3,0,8.9l0.1,0.1c2.9-1.6,6.8-1.7,9.6,1.7
			c3.2,3.9,2.4,9.1-2.3,13c-4,3.3-7.6,3.1-10.6,2.3l0.7-3.2c2.7,0.8,5,0.9,7.9-1.4c3.2-2.6,3.7-5.7,1.4-8.3l-0.2-0.3
			c-2.2-2.7-5.2-2.8-8.5-0.1l-2.7,2.2l-1.9-2.3L224.2,188.6z"/>
		<path class="st1" d="M263,178.3L248,190.8l-2.3-2.8l1.9-13.1c0.6-3.8,0.4-7.2-1.5-9.5l-0.3-0.4c-2.3-2.7-5-3.1-7.8-0.7
			c-2.7,2.3-2.9,5-1.7,7.9l-3.2,1.1c-1.3-3.4-1.5-7.7,2.9-11.4c4.5-3.7,9.3-3.1,12.4,0.7c2.8,3.4,2.9,7.6,2.1,12.8l-1.7,10.7
			l12.3-10.2L263,178.3z"/>
	</g>
	<g class="st0">
		<path class="st1" d="M172.1,244c2.6-3.1,2.3-6,0.2-7.8L172,236c-2.4-2-5-1.3-7.1,1.1c-2,2.4-2,4.8-1.1,7.1l-3.2,0.7
			c-0.8-2.7-1.1-6.2,2-9.9c3.2-3.8,7.8-5.2,11.4-2.2c2.9,2.4,3,5.8,1.6,8.8l0.1,0.1c2.6-2.1,6.3-2.9,9.7-0.1c3.9,3.2,4,8.6,0.1,13.3
			c-3.3,4-6.9,4.4-10,4.2l0.1-3.3c2.8,0.3,5.1,0,7.5-2.8c2.6-3.2,2.6-6.2-0.1-8.5l-0.3-0.2c-2.7-2.2-5.6-1.8-8.3,1.5l-2.2,2.7
			l-2.3-1.9L172.1,244z"/>
		<path class="st1" d="M196.2,241.4l-2.4-2l5.4-6.5L181,217.8l-0.2,0.2l0.6,10.1l-3,0.2l-0.6-10.6l3.5-4.2l20.2,16.8l4.9-6l2.4,2
			L196.2,241.4z"/>
	</g>
	<g class="st0">
		<path class="st1" d="M130.5,307.5c2-3.5,1.3-6.4-1.2-7.8l-0.3-0.1c-2.7-1.6-5.2-0.5-6.8,2.3c-1.6,2.7-1.2,5.1,0.2,7.2l-3.1,1.3
			c-1.3-2.5-2.1-6,0.3-10.1c2.5-4.3,6.8-6.5,10.9-4.1c3.3,1.9,4,5.2,3.1,8.4l0.1,0.1c2.2-2.5,5.7-4,9.6-1.8
			c4.4,2.5,5.4,7.8,2.4,13.1c-2.6,4.5-6.1,5.6-9.2,5.9l-0.4-3.3c2.8-0.2,5.1-0.9,6.9-4.1c2.1-3.6,1.5-6.6-1.6-8.3l-0.3-0.2
			c-3-1.7-5.8-0.8-8,2.9l-1.7,3l-2.6-1.5L130.5,307.5z"/>
		<path class="st1" d="M140.6,294.5c-8.3-4.8-11.6-10.3-8.1-16.5c3.6-6.2,10-6.1,18.3-1.3c8.3,4.8,11.6,10.3,8.1,16.5
			C155.3,299.4,148.9,299.3,140.6,294.5z M151.1,281l-4.2-2.4c-5.1-2.9-9.4-3.2-11.7,0.9s0,7.6,5.1,10.6l4.2,2.4
			c5.1,2.9,9.4,3.2,11.7-0.9S156.2,284,151.1,281z M144.8,288.1l-0.8-0.5c-1-0.6-1.4-1.6-0.5-3.3c1-1.7,2.1-1.8,3.1-1.3l0.8,0.5
			c1,0.6,1.4,1.6,0.5,3.3C146.9,288.5,145.8,288.6,144.8,288.1z"/>
	</g>
	<g class="st0">
		<path class="st1" d="M120.4,372.6l-6.7,18.4l-3.4-1.2l-4.9-12.2c-1.4-3.6-3.3-6.4-6.1-7.4l-0.5-0.2c-3.3-1.2-5.9-0.1-7.1,3.3
			c-1.2,3.4,0,5.7,2.5,7.6l-2.2,2.6c-2.8-2.2-5.2-5.9-3.2-11.3c2-5.5,6.4-7.4,11.1-5.7c4.2,1.5,6.4,5.1,8.2,10l3.9,10.1l5.4-15
			L120.4,372.6z"/>
		<path class="st1" d="M125.4,358.9l-1.6,4.3c-2.1-7.6-4.5-12.2-10.3-16.1l-0.2,0.2c1.8,2.2,2.7,4.8,1.5,8.2
			c-1.8,4.8-6.3,7.1-11.5,5.2c-5.4-2-7.8-7-5.7-12.6c2.1-5.8,7.4-7.9,14-5.5C119.8,345.6,124.2,353.4,125.4,358.9z M108.8,345.4
			l-0.3-0.1c-3.7-1.4-6.7,0.1-8.1,3.8s0,6.8,3.7,8.1l0.3,0.1c3.7,1.4,6.7-0.1,8.1-3.8S112.5,346.7,108.8,345.4z"/>
	</g>
	<g class="st0">
		<path class="st1" d="M102.4,443.1L99,462.4l-3.6-0.6l-7-11.2c-2-3.3-4.4-5.8-7.3-6.3l-0.5-0.1c-3.5-0.6-5.8,0.9-6.4,4.5
			c-0.6,3.5,1,5.6,3.8,7.1l-1.7,2.9c-3.2-1.7-6.1-4.9-5.1-10.6c1-5.8,5.1-8.4,9.9-7.5c4.4,0.8,7.2,3.9,9.8,8.4l5.6,9.3l2.8-15.7
			L102.4,443.1z"/>
		<path class="st1" d="M95.4,436.9c-3.9-0.7-5.8-3.5-6.1-7.1l-0.3-0.1c-1.6,2.9-4.4,4.4-7.7,3.8c-4.4-0.8-6.6-4.7-5.6-10.5
			c1-5.8,4.5-8.8,8.9-8c3.3,0.6,5.4,3,5.9,6.2l0.3,0.1c1.6-3.3,4.3-5.3,8.2-4.6c4.8,0.8,7.8,4.9,6.6,11.6
			C104.3,434.9,100.1,437.7,95.4,436.9z M84.8,418.6l-0.6-0.1c-2.9-0.5-5,1.3-5.6,4.9c-0.6,3.6,0.7,6,3.6,6.6l0.6,0.1
			c2.9,0.5,5-1.2,5.6-4.9C89.1,421.5,87.8,419.1,84.8,418.6z M98.5,420.2l-0.9-0.2c-3.3-0.6-5.6,1.5-6.4,5.6
			c-0.7,4.1,0.8,6.9,4.1,7.5l0.9,0.2c3.3,0.6,5.7-1.6,6.4-5.6C103.3,423.6,101.8,420.8,98.5,420.2z"/>
	</g>
	<g class="st0">
		<path class="st1" d="M97.6,521.9l-29.3,2.3v-3.2l16.8-1.2l8.9-0.6v-0.3l-18-3.9v-3.9l18-3.9v-0.3l-8.9-0.6L68.2,505V502l29.3,2.3
			v5.1l-17.5,3.6v0.3l17.5,3.6V521.9z"/>
	</g>
	<g class="st0">
		<path class="st1" d="M104.4,588.4l3.4,19.3l-3.6,0.6l-10.4-8.1c-3-2.4-6.1-3.9-9-3.4l-0.5,0.1c-3.5,0.6-5.1,2.8-4.5,6.4
			c0.6,3.5,2.9,5,6,5.3l-0.6,3.3c-3.6-0.5-7.4-2.5-8.4-8.2c-1-5.8,1.9-9.6,6.8-10.5c4.4-0.8,8.1,1.3,12.1,4.5l8.5,6.8l-2.8-15.7
			L104.4,588.4z"/>
		<path class="st1" d="M92.9,585c-8.6,1.5-16.3-3.1-20.1-7.2l-0.8-4.5c5.6,5.5,10,8.3,17,8.7l0-0.2c-2.6-1-4.8-2.8-5.4-6.4
			c-0.9-5,1.9-9.3,7.4-10.2c5.7-1,10.2,2.2,11.3,8C103.3,579.3,99.7,583.8,92.9,585z M92,568.6l-0.3,0.1c-3.9,0.7-5.8,3.4-5.1,7.3
			c0.7,3.9,3.4,5.8,7.3,5.2l0.3-0.1c3.9-0.7,5.8-3.4,5.1-7.3C98.6,569.9,95.9,567.9,92,568.6z"/>
	</g>
	<g class="st0">
		<path class="st1" d="M122.6,658.8l6.7,18.4l-3.4,1.2l-11.6-6.2c-3.4-1.8-6.7-2.8-9.5-1.8l-0.5,0.2c-3.3,1.2-4.6,3.7-3.3,7.1
			c1.2,3.4,3.7,4.4,6.9,4.2l0,3.4c-3.6,0.1-7.8-1.2-9.7-6.6c-2-5.5,0.2-9.8,4.9-11.5c4.2-1.5,8.2-0.2,12.7,2.4l9.5,5.3l-5.4-15
			L122.6,658.8z"/>
		<path class="st1" d="M89.9,645.5l4.5,12.3l10.8-3l-0.1-0.3c-2.3-0.7-4-1.8-5.1-4.7c-1.8-4.8,0.1-9.5,5.5-11.4
			c5.4-2,10.4,0.2,12.5,6.1c1.7,4.7,0.2,7.9-1.5,10.5l-2.8-1.8c1.6-2.2,2.6-4.3,1.4-7.7c-1.4-3.8-4.4-5.1-7.9-3.8l-0.3,0.1
			c-3.6,1.3-5,4.2-3.6,8.1c0.9,2.6,2.4,3.5,4.2,4.2l0.6,2.9l-15.5,4.5l-5.5-15L89.9,645.5z"/>
	</g>
	<g class="st0">
		<path class="st1" d="M153.5,724.7l9.8,17l-3.1,1.8l-12.6-4.1c-3.7-1.2-7.1-1.6-9.7-0.1l-0.4,0.3c-3.1,1.8-3.9,4.4-2.1,7.6
			c1.8,3.1,4.4,3.7,7.5,3l0.6,3.3c-3.6,0.7-7.9,0.2-10.8-4.9c-2.9-5.1-1.5-9.7,2.8-12.2c3.9-2.2,8-1.6,13,0.1l10.3,3.6l-8-13.8
			L153.5,724.7z"/>
		<path class="st1" d="M144.2,708.5l-5,2.9l7.2,12.6l-2.7,1.6l-24.1-0.8l-2.6-4.5l18-10.3l-2.2-3.8l2.5-1.4l2.2,3.8l5-2.9
			L144.2,708.5z M142.3,722.7l-5.6-9.8l-15.6,9l0.1,0.1L142.3,722.7z"/>
	</g>
	<g class="st0">
		<path class="st1" d="M195.8,784.2l12.5,15.1l-2.8,2.3l-13.1-1.9c-3.8-0.6-7.2-0.4-9.5,1.5l-0.4,0.3c-2.7,2.3-3.1,5-0.7,7.8
			c2.3,2.7,5,2.9,7.9,1.7l1.1,3.2c-3.4,1.3-7.7,1.5-11.4-2.9c-3.7-4.5-3.1-9.3,0.7-12.4c3.4-2.8,7.6-2.9,12.8-2.1l10.7,1.7
			l-10.2-12.3L195.8,784.2z"/>
		<path class="st1" d="M173.8,784.2c-2.6-3.1-5.5-3.4-7.7-1.6l-0.2,0.2c-2.4,2-2.2,4.7-0.2,7.2c2,2.4,4.3,2.8,6.8,2.4l0.1,3.3
			c-2.8,0.3-6.3-0.1-9.4-3.8c-3.2-3.8-3.7-8.6-0.1-11.7c2.9-2.4,6.3-1.9,8.9,0l0.1-0.1c-1.6-2.9-1.7-6.8,1.7-9.6
			c3.9-3.2,9.1-2.4,13,2.3c3.3,4,3.1,7.6,2.3,10.6l-3.2-0.7c0.8-2.7,0.9-5-1.4-7.9c-2.6-3.2-5.7-3.7-8.3-1.4l-0.3,0.2
			c-2.7,2.2-2.8,5.2-0.1,8.5l2.2,2.7l-2.3,1.9L173.8,784.2z"/>
	</g>
	<g class="st0">
		<path class="st1" d="M247.5,835.6l15.1,12.5l-2.3,2.8l-13.2,0.5c-3.8,0.1-7.2,0.9-9.1,3.2l-0.3,0.4c-2.3,2.7-2.1,5.5,0.7,7.8
			c2.7,2.3,5.4,1.9,8,0.2l1.7,2.9c-3.1,1.9-7.3,2.9-11.7-0.8c-4.5-3.7-4.8-8.5-1.6-12.4c2.8-3.4,7-4.3,12.2-4.4l10.9-0.3l-12.3-10.2
			L247.5,835.6z"/>
		<path class="st1" d="M228.1,819.4l15.1,12.5l-2.3,2.8l-13.2,0.5c-3.8,0.1-7.2,0.9-9.1,3.2l-0.3,0.4c-2.3,2.7-2.1,5.5,0.7,7.8
			c2.7,2.3,5.4,1.9,8,0.2l1.7,2.9c-3.1,1.9-7.3,2.9-11.8-0.8c-4.5-3.7-4.8-8.6-1.6-12.4c2.8-3.4,7-4.3,12.2-4.4l10.9-0.3l-12.3-10.2
			L228.1,819.4z"/>
	</g>
	<g class="st0">
		<path class="st1" d="M307.5,877l17,9.8l-1.8,3.1l-12.9,2.8c-3.8,0.8-6.9,2.1-8.4,4.7l-0.3,0.4c-1.8,3.1-1.1,5.8,2,7.6
			c3.1,1.8,5.7,1,8-1.2l2.2,2.6c-2.7,2.4-6.7,4.1-11.7,1.2c-5.1-2.9-6.2-7.6-3.7-11.9c2.2-3.9,6.2-5.4,11.3-6.4l10.7-2.1l-13.8-8
			L307.5,877z"/>
		<path class="st1" d="M302.1,873.9l-1.5,2.7l-7.3-4.2l-11.8,20.6l0.3,0.1l9.9-2.3l0.7,3l-10.4,2.4l-4.8-2.8l13.1-22.8l-6.7-3.9
			l1.5-2.7L302.1,873.9z"/>
	</g>
	<g class="st0">
		<path class="st1" d="M373.9,907.4l18.4,6.7l-1.2,3.4l-12.2,4.9c-3.6,1.4-6.4,3.3-7.4,6.1l-0.2,0.5c-1.2,3.3-0.1,5.9,3.3,7.1
			c3.4,1.2,5.7,0,7.6-2.5l2.6,2.2c-2.2,2.8-5.9,5.2-11.3,3.2c-5.5-2-7.4-6.4-5.7-11.1c1.5-4.2,5.1-6.4,10-8.2l10.1-3.9l-15-5.4
			L373.9,907.4z"/>
		<path class="st1" d="M364.2,919.4c-3.3,9-8.1,13.2-14.8,10.7c-6.7-2.4-7.7-8.8-4.4-17.8c3.3-9,8.1-13.2,14.8-10.7
			C366.5,904.1,367.5,910.4,364.2,919.4z M349.2,911.4l-1.6,4.5c-2,5.5-1.5,9.8,2.9,11.4c4.4,1.6,7.5-1.3,9.5-6.9l1.6-4.5
			c2-5.5,1.5-9.8-2.9-11.4C354.3,903,351.2,905.9,349.2,911.4z M357.2,916.4l-0.3,0.9c-0.4,1.1-1.3,1.7-3.1,1
			c-1.8-0.7-2.1-1.7-1.8-2.8l0.3-0.9c0.4-1.1,1.3-1.7,3.1-1C357.2,914.3,357.6,915.3,357.2,916.4z"/>
	</g>
	<g class="st0">
		<path class="st1" d="M463.2,928.7l-0.5,3l-8.3-1.5l-4.1,23.3l0.3,0.1l8.5-5.5l1.6,2.6l-8.9,5.8l-5.4-1l4.6-25.9l-7.6-1.3l0.5-3
			L463.2,928.7z"/>
		<path class="st1" d="M430.2,922.9l4.5,0.8c-7.1,3.4-11.2,6.6-14,13l0.2,0.1c1.8-2.1,4.2-3.5,7.8-2.9c5,0.9,8,5,7.1,10.4
			c-1,5.7-5.5,8.9-11.4,7.8c-6.1-1.1-9.1-5.9-7.8-12.8C418,930.8,424.9,925.1,430.2,922.9z M419.7,941.6l-0.1,0.3
			c-0.7,3.9,1.2,6.6,5.2,7.3c3.9,0.7,6.6-1.2,7.3-5.1l0.1-0.3c0.7-3.9-1.2-6.6-5.2-7.3C423.1,935.8,420.4,937.7,419.7,941.6z"/>
	</g>
	<g class="st0">
		<path class="st1" d="M525.2,934.9l-2.6,2.1c-2.3-2.9-4.7-4.2-8.2-4.2c-4.2,0-6.6,2.1-6.6,5.6c0,2.9,1.5,4.4,5.5,5l3.3,0.5
			c5.8,1,7.6,4.3,7.6,8c0,5.4-3.8,8.1-9.8,8.1c-4.7,0-7.9-1.7-9.8-4.5l2.5-2.1c1.6,2.1,3.7,3.6,7.4,3.6c3.9,0,6.2-1.7,6.2-5
			c0-2.6-1.3-4.3-5.5-5l-3.2-0.5c-5.8-1-7.6-4.2-7.6-8c0-5.4,3.7-8.7,10.2-8.7C519.8,929.7,523,931.9,525.2,934.9z"/>
	</g>
	<g class="st0">
		<path class="st1" d="M608.4,920.1l0.5,3l-8.3,1.5l4.1,23.3l0.3-0.1l6.1-8.1l2.4,1.8l-6.4,8.5l-5.4,1l-4.6-25.9l-7.6,1.3l-0.5-3
			L608.4,920.1z"/>
		<path class="st1" d="M580,925.1l-6.7,27.9l12.7-2.2l-0.9-5.4l3.1-0.5l1.5,8.4l-19.3,3.4l-0.5-3.1l6.5-27.8L580,925.1z"/>
	</g>
	<g class="st0">
		<path class="st1" d="M678,898.7l1,2.9l-7.9,2.9l8.1,22.2l0.3-0.1l4.6-9l2.7,1.4l-4.8,9.5l-5.2,1.9l-9-24.7l-7.3,2.6l-1-2.9
			L678,898.7z"/>
		<path class="st1" d="M658.8,917.1c3,8.2-0.2,16.6-3.6,21.1l-4.3,1.6c4.4-6.5,6.4-11.3,5.7-18.2l-0.2,0c-0.5,2.7-1.9,5.2-5.4,6.4
			c-4.8,1.8-9.4-0.3-11.3-5.5c-2-5.4,0.4-10.5,6-12.5C651.4,907.8,656.4,910.5,658.8,917.1z M642.9,920.8l0.1,0.3
			c1.4,3.7,4.4,5.1,8.1,3.7s5.2-4.3,3.8-8.1l-0.1-0.3c-1.4-3.7-4.4-5.1-8.1-3.7S641.5,917,642.9,920.8z"/>
	</g>
	<g class="st0">
		<path class="st1" d="M742.5,864.8l1.5,2.7l-7.3,4.2l11.8,20.6l0.3-0.1l3-9.7l2.9,0.9l-3.1,10.2l-4.8,2.8l-13.1-22.8l-6.7,3.9
			l-1.5-2.7L742.5,864.8z"/>
		<path class="st1" d="M718.5,909l11.4-6.6l-4.9-10.2l-0.3,0.1c-0.3,2.4-1,4.3-3.7,5.8c-4.5,2.6-9.4,1.5-12.2-3.4
			c-2.9-5-1.6-10.3,3.8-13.4c4.3-2.5,7.8-1.6,10.6-0.3l-1.3,3.1c-2.5-1.2-4.7-1.9-7.9-0.1c-3.5,2-4.3,5.2-2.4,8.5l0.2,0.3
			c1.9,3.4,5.1,4.2,8.6,2.2c2.4-1.4,3-3,3.4-4.8l2.8-1.1l7.2,14.6l-13.9,8L718.5,909z"/>
	</g>
	<g class="st0">
		<path class="st1" d="M800.1,819.9l2,2.4l-6.5,5.4l15.1,18.2l0.2-0.2l1.3-10l3,0.4l-1.3,10.6l-4.2,3.5l-16.8-20.2l-6,4.9l-2-2.4
			L800.1,819.9z"/>
		<path class="st1" d="M771.2,843.9l3.7,4.4l11.1-9.2l2,2.4l3.3,23.9l-3.9,3.3l-13.2-15.9l-3.4,2.8l-1.9-2.2l3.4-2.8l-3.7-4.4
			L771.2,843.9z M785.5,843.3l-8.7,7.2l11.5,13.8l0.1-0.1L785.5,843.3z"/>
	</g>
	<g class="st0">
		<path class="st1" d="M849.1,765.7l2.4,2l-5.4,6.5l18.2,15.1l0.2-0.2l-0.6-10.1l3-0.2l0.6,10.6l-3.5,4.2l-20.2-16.8l-4.9,6l-2.4-2
			L849.1,765.7z"/>
		<path class="st1" d="M841,801.9c-2.6,3.1-2.3,6-0.2,7.8l0.2,0.2c2.4,2,5,1.3,7.1-1.1c2-2.4,2-4.8,1.1-7.1l3.2-0.7
			c0.8,2.7,1.1,6.2-2,9.9c-3.2,3.8-7.8,5.2-11.4,2.2c-2.9-2.4-3-5.8-1.6-8.8l-0.1-0.1c-2.6,2.1-6.3,2.9-9.7,0.1
			c-3.9-3.2-4-8.6-0.1-13.3c3.3-4,6.9-4.4,10-4.2l-0.1,3.3c-2.8-0.3-5.1,0-7.5,2.8c-2.6,3.2-2.6,6.2,0.1,8.5l0.3,0.2
			c2.7,2.2,5.6,1.8,8.3-1.5l2.2-2.7l2.3,1.9L841,801.9z"/>
	</g>
	<g class="st0">
		<path class="st1" d="M887.8,703.7l2.7,1.5l-4.2,7.3l20.6,11.8l0.1-0.3l-2.3-9.9l3-0.7l2.4,10.4l-2.8,4.8l-22.8-13.1l-3.9,6.7
			l-2.7-1.5L887.8,703.7z"/>
		<path class="st1" d="M865.7,742.2l9.8-17l3.1,1.8l2.8,12.9c0.8,3.8,2.1,6.9,4.7,8.4l0.4,0.3c3.1,1.8,5.8,1.1,7.6-2
			c1.8-3.1,1-5.7-1.2-8l2.6-2.2c2.4,2.7,4.1,6.7,1.2,11.7c-2.9,5.1-7.6,6.2-11.9,3.7c-3.9-2.2-5.4-6.2-6.4-11.3l-2.1-10.7l-8,13.8
			L865.7,742.2z"/>
	</g>
	<g class="st0">
		<path class="st1" d="M915.2,636l2.9,1l-2.9,7.9l22.2,8.1l0.1-0.3l-3.9-9.3l2.8-1.2l4.2,9.8l-1.9,5.2l-24.7-9l-2.6,7.3l-2.9-1
			L915.2,636z"/>
		<path class="st1" d="M906.6,659.7l2.9,1l-2.9,7.9l22.2,8.1l0.1-0.3l-3.9-9.3l2.8-1.2l4.2,9.8l-1.9,5.2l-24.7-9l-2.6,7.3l-2.9-1
			L906.6,659.7z"/>
	</g>
	<g class="st0">
		<path class="st1" d="M930.1,564.6l3,0.5l-1.5,8.3l23.3,4.1l0.1-0.3l-5.5-8.5l2.6-1.6l5.8,8.9l-1,5.4l-25.9-4.6l-1.3,7.6l-3-0.5
			L930.1,564.6z"/>
		<path class="st1" d="M940.3,590.8c9.4,1.7,14.4,5.7,13.2,12.7c-1.2,7-7.3,9.1-16.7,7.5c-9.4-1.7-14.4-5.7-13.2-12.7
			C924.9,591.2,930.9,589.1,940.3,590.8z M935.1,607l4.7,0.8c5.8,1,9.9-0.2,10.7-4.8c0.8-4.6-2.6-7.2-8.4-8.2l-4.7-0.8
			c-5.8-1-9.9,0.2-10.7,4.8C925.8,603.4,929.3,605.9,935.1,607z M938.6,598.2l0.9,0.2c1.1,0.2,1.9,1,1.5,2.9
			c-0.3,1.9-1.3,2.4-2.4,2.2l-0.9-0.2c-1.1-0.2-1.9-1-1.5-2.9C936.4,598.5,937.4,598,938.6,598.2z"/>
	</g>
	<g class="st0">
		<path class="st1" d="M931.6,504.5h29.3v18.1h-3.1v-14.5H948v14h-3.1v-14h-10.2v14.5h-3.1V504.5z"/>
	</g>
	<g class="st0">
		<path class="st1" d="M931.3,429.1c3.9-0.7,6.6,1.3,8.2,4.6l0.3-0.1c0.5-3.2,2.6-5.6,5.9-6.2c4.4-0.8,7.8,2.2,8.9,8
			c1,5.8-1.2,9.8-5.6,10.5c-3.3,0.6-6.1-0.9-7.7-3.8l-0.3,0.1c-0.3,3.7-2.2,6.4-6.1,7.1c-4.8,0.8-9-2-10.1-8.7
			C923.5,434,926.5,430,931.3,429.1z M934,445.8l0.9-0.2c3.3-0.6,4.8-3.3,4.1-7.5c-0.7-4.1-3.1-6.2-6.4-5.6l-0.9,0.2
			c-3.3,0.6-4.8,3.4-4.1,7.5C928.4,444.3,930.8,446.4,934,445.8z M947.5,442.7l0.6-0.1c2.9-0.5,4.3-2.9,3.6-6.6
			c-0.6-3.6-2.7-5.5-5.6-4.9l-0.6,0.1c-2.9,0.5-4.3,2.8-3.6,6.6C942.5,441.4,944.5,443.2,947.5,442.7z"/>
	</g>
	<g class="st0">
		<path class="st1" d="M905.8,365l28.6,1.8l-4.4-12.1l-5.1,1.9l-1.1-3l8-2.9l6.7,18.4l-2.9,1.1l-28.5-1.6L905.8,365z"/>
	</g>
	<g class="st0">
		<path class="st1" d="M881.6,289.9c7.6-4.3,16.4-2.7,21.5,0l2.3,3.9c-7.2-3.3-12.3-4.4-19-2.4l0,0.2c2.8,0,5.4,1,7.3,4.2
			c2.6,4.5,1.4,9.4-3.5,12.2c-5,2.9-10.4,1.5-13.4-3.7C873.7,298.8,875.5,293.4,881.6,289.9z M888,305.1l0.3-0.2
			c3.4-2,4.3-5.2,2.3-8.6c-2-3.5-5.2-4.4-8.6-2.4l-0.3,0.2c-3.4,2-4.3,5.2-2.3,8.6C881.3,306.2,884.5,307,888,305.1z"/>
	</g>
	<g class="st0">
		<path class="st1" d="M860.9,233.8l-8.4-10.1l-9.2,6.5l0.2,0.2c2.4-0.2,4.4,0.3,6.4,2.7c3.3,3.9,3.1,9-1.3,12.6
			c-4.4,3.7-9.9,3.3-13.9-1.5c-3.2-3.8-2.9-7.4-2.1-10.4l3.2,0.7c-0.8,2.7-1,5,1.3,7.7c2.6,3.1,5.8,3.3,8.8,0.9l0.3-0.2
			c3-2.5,3.3-5.7,0.7-8.8c-1.8-2.1-3.5-2.5-5.3-2.6l-1.6-2.6l13.1-9.5l10.2,12.3L860.9,233.8z"/>
	</g>
	<g class="st0">
		<path class="st1" d="M786.3,194.5l3.7-4.4l-11.1-9.2l2-2.4l22.9-7.6l3.9,3.3L794.4,190l3.4,2.8l-1.9,2.2l-3.4-2.8l-3.7,4.4
			L786.3,194.5z M783.1,180.6l8.7,7.2l11.5-13.8l-0.1-0.1L783.1,180.6z"/>
	</g>
	<g class="st0">
		<path class="st1" d="M731.3,135.3c3.5,2,6.4,1.3,7.8-1.2l0.1-0.3c1.6-2.7,0.5-5.2-2.3-6.8c-2.7-1.6-5.1-1.2-7.2,0.2l-1.3-3.1
			c2.5-1.3,6-2.1,10.1,0.3c4.3,2.5,6.5,6.8,4.1,10.9c-1.9,3.3-5.2,4-8.4,3.1l-0.1,0.1c2.5,2.2,4,5.7,1.8,9.6
			c-2.5,4.4-7.8,5.4-13.1,2.4c-4.5-2.6-5.6-6.1-5.9-9.2l3.3-0.4c0.2,2.8,0.9,5.1,4.1,6.9c3.6,2.1,6.6,1.5,8.3-1.6l0.2-0.3
			c1.7-3,0.8-5.8-2.9-8l-3-1.7l1.5-2.6L731.3,135.3z"/>
	</g>
	<g class="st0">
		<path class="st1" d="M667.1,123.2l-18.4-6.7l1.2-3.4l12.2-4.9c3.6-1.4,6.4-3.3,7.4-6.1l0.2-0.5c1.2-3.3,0.1-5.9-3.3-7.1
			c-3.4-1.2-5.7,0-7.6,2.5l-2.6-2.2c2.2-2.8,5.9-5.2,11.3-3.2c5.5,2,7.4,6.4,5.7,11.1c-1.5,4.2-5.1,6.4-10,8.2l-10.1,3.9l15,5.4
			L667.1,123.2z"/>
	</g>
	<g class="st0">
		<path class="st1" d="M578.4,99.9l0.5-3l8.3,1.5l4.1-23.3L591,75l-8.5,5.5l-1.6-2.6l8.9-5.8l5.4,1L590.7,99l7.6,1.3l-0.5,3
			L578.4,99.9z"/>
	</g>
	<polyline class="st2" points="514.7,48.4 514.7,38 514.7,17.3 514.7,14.7 	"/>
	<polyline class="st2" points="514.7,1014.7 514.7,1012.1 514.7,991.4 514.7,981 	"/>
	<polyline class="st2" points="433.7,55.5 431.9,45.3 428.3,24.9 427.9,22.3 	"/>
	<polyline class="st2" points="601.5,1007.1 601.1,1004.5 597.5,984.1 595.7,973.9 	"/>
	<polyline class="st2" points="355.2,76.5 351.7,66.8 344.6,47.3 343.7,44.8 	"/>
	<polyline class="st2" points="685.7,984.5 684.8,982.1 677.7,962.6 674.2,952.9 	"/>
	<polyline class="st2" points="281.5,110.9 276.4,101.9 266,83.9 264.7,81.7 	"/>
	<polyline class="st2" points="764.7,947.7 763.4,945.5 753,927.5 747.9,918.5 	"/>
	<polyline class="st2" points="215,157.5 208.3,149.5 195,133.7 193.3,131.7 	"/>
	<polyline class="st2" points="836.1,897.7 834.4,895.7 821.1,879.9 814.5,871.9 	"/>
	<polyline class="st2" points="157.5,215 149.5,208.3 133.7,195 131.7,193.3 	"/>
	<polyline class="st2" points="897.7,836.1 895.7,834.4 879.9,821.1 871.9,814.5 	"/>
	<polyline class="st2" points="110.9,281.5 101.9,276.4 83.9,266 81.7,264.7 	"/>
	<polyline class="st2" points="947.7,764.7 945.5,763.4 927.5,753 918.5,747.9 	"/>
	<polyline class="st2" points="76.5,355.2 66.8,351.7 47.3,344.6 44.8,343.7 	"/>
	<polyline class="st2" points="984.5,685.7 982.1,684.8 962.6,677.7 952.9,674.2 	"/>
	<polyline class="st2" points="55.5,433.7 45.3,431.9 24.9,428.3 22.3,427.9 	"/>
	<polyline class="st2" points="1007.1,601.5 1004.5,601.1 984.1,597.5 973.9,595.7 	"/>
	<polyline class="st2" points="48.4,514.7 38,514.7 17.3,514.7 14.7,514.7 	"/>
	<polyline class="st2" points="1014.7,514.7 1012.1,514.7 991.4,514.7 981,514.7 	"/>
	<polyline class="st2" points="55.5,595.7 45.3,597.5 24.9,601.1 22.3,601.5 	"/>
	<polyline class="st2" points="1007.1,427.9 1004.5,428.3 984.1,431.9 973.9,433.7 	"/>
	<polyline class="st2" points="76.5,674.2 66.8,677.7 47.3,684.8 44.8,685.7 	"/>
	<polyline class="st2" points="984.5,343.7 982.1,344.6 962.6,351.7 952.9,355.2 	"/>
	<polyline class="st2" points="110.9,747.9 101.9,753 83.9,763.4 81.7,764.7 	"/>
	<polyline class="st2" points="947.7,264.7 945.5,266 927.5,276.4 918.5,281.5 	"/>
	<polyline class="st2" points="157.5,814.5 149.5,821.1 133.7,834.4 131.7,836.1 	"/>
	<polyline class="st2" points="897.7,193.3 895.7,195 879.9,208.3 871.9,215 	"/>
	<polyline class="st2" points="215,871.9 208.3,879.9 195,895.7 193.3,897.7 	"/>
	<polyline class="st2" points="836.1,131.7 834.4,133.7 821.1,149.5 814.5,157.5 	"/>
	<polyline class="st2" points="281.5,918.5 276.4,927.5 266,945.5 264.7,947.7 	"/>
	<polyline class="st2" points="764.7,81.7 763.4,83.9 753,101.9 747.9,110.9 	"/>
	<polyline class="st2" points="355.2,952.9 351.7,962.6 344.6,982.1 343.7,984.5 	"/>
	<polyline class="st2" points="685.7,44.8 684.8,47.3 677.7,66.8 674.2,76.5 	"/>
	<polyline class="st2" points="433.7,973.9 431.9,984.1 428.3,1004.5 427.9,1007.1 	"/>
	<polyline class="st2" points="601.5,22.3 601.1,24.9 597.5,45.3 595.7,55.5 	"/>
	<line class="st3" x1="473.1" y1="39.8" x2="471.4" y2="19.2"/>
	<line class="st3" x1="558" y1="1010.2" x2="556.2" y2="989.6"/>
	<line class="st3" x1="391.3" y1="54.3" x2="386" y2="34.2"/>
	<line class="st3" x1="643.4" y1="995.2" x2="638.1" y2="975.1"/>
	<line class="st3" x1="313.2" y1="82.7" x2="304.5" y2="63.9"/>
	<line class="st3" x1="724.9" y1="965.5" x2="716.2" y2="946.7"/>
	<line class="st3" x1="241.3" y1="124.2" x2="229.4" y2="107.2"/>
	<line class="st3" x1="800" y1="922.2" x2="788.1" y2="905.2"/>
	<line class="st3" x1="177.6" y1="177.6" x2="163" y2="163"/>
	<line class="st3" x1="866.4" y1="866.4" x2="851.8" y2="851.8"/>
	<line class="st3" x1="124.2" y1="241.3" x2="107.2" y2="229.4"/>
	<line class="st3" x1="922.2" y1="800" x2="905.2" y2="788.1"/>
	<line class="st3" x1="82.7" y1="313.2" x2="63.9" y2="304.5"/>
	<line class="st3" x1="965.5" y1="724.9" x2="946.7" y2="716.2"/>
	<line class="st3" x1="54.3" y1="391.3" x2="34.2" y2="386"/>
	<line class="st3" x1="995.2" y1="643.4" x2="975.1" y2="638.1"/>
	<line class="st3" x1="39.8" y1="473.1" x2="19.2" y2="471.4"/>
	<line class="st3" x1="1010.2" y1="558" x2="989.6" y2="556.2"/>
	<line class="st3" x1="39.8" y1="556.2" x2="19.2" y2="558"/>
	<line class="st3" x1="1010.2" y1="471.4" x2="989.6" y2="473.1"/>
	<line class="st3" x1="54.3" y1="638.1" x2="34.2" y2="643.4"/>
	<line class="st3" x1="995.2" y1="386" x2="975.1" y2="391.3"/>
	<line class="st3" x1="82.7" y1="716.2" x2="63.9" y2="724.9"/>
	<line class="st3" x1="965.5" y1="304.5" x2="946.7" y2="313.2"/>
	<line class="st3" x1="124.2" y1="788.1" x2="107.2" y2="800"/>
	<line class="st3" x1="922.2" y1="229.4" x2="905.2" y2="241.3"/>
	<line class="st3" x1="177.6" y1="851.8" x2="163" y2="866.4"/>
	<line class="st3" x1="866.4" y1="163" x2="851.8" y2="177.6"/>
	<line class="st3" x1="241.3" y1="905.2" x2="229.4" y2="922.2"/>
	<line class="st3" x1="800" y1="107.2" x2="788.1" y2="124.2"/>
	<line class="st3" x1="313.2" y1="946.7" x2="304.5" y2="965.5"/>
	<line class="st3" x1="724.9" y1="63.9" x2="716.2" y2="82.7"/>
	<line class="st3" x1="391.3" y1="975.1" x2="386" y2="995.2"/>
	<line class="st3" x1="643.4" y1="34.2" x2="638.1" y2="54.3"/>
	<line class="st3" x1="473.1" y1="989.6" x2="471.4" y2="1010.2"/>
	<line class="st3" x1="558" y1="19.2" x2="556.2" y2="39.8"/>
</g>
</svg>
