<?xml version="1.0" encoding="utf-8"?>
<!-- Generator: Adobe Illustrator 25.4.1, SVG Export Plug-In . SVG Version: 6.00 Build 0)  -->
<svg version="1.1" id="Layer_1" xmlns="http://www.w3.org/2000/svg" xmlns:xlink="http://www.w3.org/1999/xlink" x="0px" y="0px"
	 viewBox="0 0 1029.4 1029.4" style="enable-background:new 0 0 1029.4 1029.4;" xml:space="preserve">
<style type="text/css">
	.st0{display:none;}
	.st1{display:inline;}
	.st2{font-family:'IBMPlexMono-Text';}
	.st3{font-size:30px;}
	.st4{fill:none;stroke:#FFFFFF;stroke-width:6;stroke-linecap:round;stroke-miterlimit:10;}
	.st5{fill:none;stroke:#FFFFFF;stroke-width:4;stroke-linecap:round;stroke-miterlimit:10;}
	.st6{fill:none;}
	.st7{fill:#FFFFFF;}
	.st8{fill:#383838;}
	.st9{fill:#231F20;}
</style>
<rect x="-158.5" width="1277.8" height="1192.3"/>
<g id="Layer_1_00000080888531738609519630000010735932857259827608_" class="st0">
	<g id="Layer_1_00000087390913079159240520000015426288044175183019_" class="st1">
		<text transform="matrix(1 0 0 1 32.4 475.9)" class="st2 st3">SPEED</text>
		<text transform="matrix(1 0 0 1 943.0011 476.0201)" class="st2 st3">ALT</text>
	</g>
	<g id="Layer_3" class="st1">
		<g>
			<path d="M241.4,241.4c35.5-35.5,76.8-63.4,122.8-82.8c47.6-20.1,98.2-30.4,150.4-30.4c52.2,0,102.8,10.2,150.4,30.4
				c46,19.5,87.3,47.3,122.8,82.8c27.4,27.4,50.3,58.3,68.2,92.2l141-75.3c-25.4-47.7-57.6-91.3-96.2-129.9
				c-50.1-50.1-108.6-89.5-173.6-117c-67.4-28.5-139-43-212.7-43S369.4-17.1,302,11.4c-65.1,27.5-123.5,66.9-173.6,117
				C89.8,167,57.6,210.5,32.3,258.2l141.2,75.1C191.3,299.5,214.1,268.7,241.4,241.4z"/>
		</g>
		<g>
			<g>
				<polygon points="630.2,504.5 626.2,504.5 626.2,508.5 626.2,549.7 626.2,553.7 630.2,553.7 642.7,553.7 646.7,553.7 
					646.7,549.7 646.7,525 788,525 792,525 792,521 792,508.5 792,504.5 788,504.5 				"/>
				<path d="M792,504.5v4V521v4h-4H646.7v24.8v4h-4h-12.5h-4v-4v-41.2v-4h4H788L792,504.5 M792,496.5h-4H630.2h-4c-4.4,0-8,3.6-8,8
					v4v41.2v4c0,4.4,3.6,8,8,8h4h12.5h4c4.4,0,8-3.6,8-8v-4V533H788h4c4.4,0,8-3.6,8-8v-4v-12.5v-4C800,500,796.4,496.5,792,496.5
					L792,496.5z"/>
			</g>
			<g>
				<polygon points="241.4,504.5 237.4,504.5 237.4,508.5 237.4,521 237.4,525 241.4,525 382.8,525 382.8,549.7 382.8,553.7 
					386.8,553.7 399.2,553.7 403.2,553.7 403.2,549.7 403.2,508.5 403.2,504.5 399.2,504.5 				"/>
				<path d="M403.2,504.5v4v41.2v4h-4h-12.5h-4v-4V525H241.4h-4v-4v-12.5v-4h4h157.9H403.2 M403.2,496.5h-4H241.4h-4
					c-4.4,0-8,3.6-8,8v4V521v4c0,4.4,3.6,8,8,8h4h133.4v16.8v4c0,4.4,3.6,8,8,8h4h12.5h4c4.4,0,8-3.6,8-8v-4v-41.2v-4
					C411.2,500,407.7,496.5,403.2,496.5L403.2,496.5z"/>
			</g>
			<g>
				<polygon points="997,481.9 844.8,481.9 843.5,481.9 842.5,482.7 802.5,511.5 798,514.7 802.5,517.9 842.5,546.7 843.5,547.5 
					844.8,547.5 997,547.5 1001,547.5 1001,543.5 1001,485.9 1001,481.9 				"/>
				<path d="M1001,481.9v4v57.6v4h-4H844.8h-1.3l-1-0.8l-40-28.8l-4.5-3.2l4.5-3.2l40-28.8l1-0.8h1.3H997L1001,481.9 M1001,473.9h-4
					H844.8h-1.3c-1.7,0-3.3,0.5-4.7,1.5l-1,0.8l-40,28.8l-4.5,3.2c-2.1,1.5-3.3,3.9-3.3,6.5s1.2,5,3.3,6.5l4.5,3.2l40,28.8l1,0.8
					c1.4,1,3,1.5,4.7,1.5h1.3H997h4c4.4,0,8-3.6,8-8v-4v-57.6v-4C1009,477.5,1005.4,473.9,1001,473.9L1001,473.9z"/>
			</g>
			<g>
				<path d="M186.9,482.7l-1-0.8h-1.3H32.4h-4v4v57.6v4h4h152.2h1.3l1-0.8l40-28.8l4.5-3.2l-4.5-3.2L186.9,482.7z"/>
				<path d="M185.9,481.9l1,0.8l40,28.8l4.5,3.2l-4.5,3.2l-40,28.8l-1,0.8h-1.3H32.4h-4v-4v-57.6v-4h4h152.2L185.9,481.9
					 M185.9,473.9h-1.3H32.4h-4c-4.4,0-8,3.6-8,8v4v57.6v4c0,4.4,3.6,8,8,8h4h152.2h1.3c1.7,0,3.3-0.5,4.7-1.5l1-0.8l40-28.8
					l4.5-3.2c2.1-1.5,3.3-3.9,3.3-6.5s-1.2-5-3.3-6.5l-4.5-3.2l-40-28.8l-1-0.8C189.2,474.4,187.6,473.9,185.9,473.9L185.9,473.9z"
					/>
			</g>
			<g>
				<path d="M41.5,466.8c-2.4,0-4.2-0.9-5.8-2.9l-2,1.8c1.5,2.1,3.9,3.6,7.6,3.6c4.8,0,7.5-2.4,7.5-6.3c0-2.9-1.4-5.1-5.4-5.8
					l-2.2-0.4c-2.8-0.5-3.7-1.6-3.7-3.4c0-2.3,1.4-3.4,4.1-3.4c2.4,0,4,1,5.1,2.5l1.9-1.8c-1.4-1.9-3.7-3.1-7-3.1
					c-4.4,0-7.1,2-7.1,5.9c0,2.8,1.4,5.1,5.4,5.8l2.3,0.4c2.7,0.5,3.7,1.5,3.7,3.4C45.9,465.4,44.4,466.8,41.5,466.8z"/>
				<path d="M41.6,447.6c3.3,0,5.6,1.2,7,3.1l-1.9,1.8c-1.1-1.5-2.7-2.5-5.1-2.5c-2.7,0-4.1,1.1-4.1,3.4c0,1.8,0.9,2.9,3.7,3.4
					l2.2,0.4c4,0.7,5.4,2.9,5.4,5.8c0,3.9-2.7,6.3-7.5,6.3c-3.7,0-6.1-1.5-7.6-3.6l2-1.8c1.6,2,3.4,2.9,5.8,2.9
					c2.9,0,4.4-1.4,4.4-3.7c0-1.9-1-2.9-3.7-3.4l-2.3-0.4c-4-0.7-5.4-3-5.4-5.8C34.5,449.6,37.2,447.6,41.6,447.6 M41.6,439.6
					c-9,0-15.1,5.6-15.1,13.9c0,2.4,0.5,4.6,1.5,6.6c-2.7,2.7-3.1,7.1-0.8,10.3c3.2,4.5,8.2,7,14.1,7c9.1,0,15.5-5.9,15.5-14.3
					c0-2.8-0.7-5.2-2-7.3c2.2-2.8,2.4-6.8,0.2-9.7C52,441.9,47.2,439.6,41.6,439.6L41.6,439.6z"/>
			</g>
			<g>
				<path d="M55.9,460.2h4.8c4,0,6.1-2.3,6.1-6.1c0-3.8-2.2-6.1-6.1-6.1H53v20.8h2.9V460.2z M55.9,450.4h4.5c2.1,0,3.3,1.1,3.3,3
					v1.4c0,2-1.2,3-3.3,3h-4.5V450.4z"/>
				<path d="M60.7,448c3.9,0,6.1,2.3,6.1,6.1c0,3.8-2.1,6.1-6.1,6.1h-4.8v8.6H53V448H60.7 M55.9,457.8h4.5c2.1,0,3.3-1,3.3-3v-1.4
					c0-1.9-1.2-3-3.3-3h-4.5V457.8 M60.7,440H53c-4.4,0-8,3.6-8,8v20.8c0,4.4,3.6,8,8,8h2.9c4.4,0,8-3.6,8-8v-0.9
					c6.6-1.3,10.9-6.6,10.9-13.8C74.8,445.8,69,440,60.7,440L60.7,440z"/>
			</g>
			<g>
				<polygon points="84,466.5 73.9,466.5 73.9,459.6 83.6,459.6 83.6,457.1 73.9,457.1 73.9,450.5 84,450.5 84,448 71,448 71,468.9 
					71,469 84,469 				"/>
				<path d="M84,448v2.5H73.9v6.6h9.7v2.5h-9.7v6.9H84v2.5H71v-0.1V448H84 M84,440H71c-4.4,0-8,3.6-8,8v20.9v0.1c0,4.4,3.6,8,8,8h13
					c4.4,0,8-3.6,8-8v-2.5c0-1.4-0.4-2.7-1-3.9c0.4-0.9,0.6-2,0.6-3v-2.5c0-1-0.2-2-0.5-2.9c0.6-1.1,0.9-2.4,0.9-3.7V448
					C92,443.6,88.4,440,84,440L84,440z"/>
			</g>
			<g>
				<polygon points="102,466.5 91.9,466.5 91.9,459.6 101.6,459.6 101.6,457.1 91.9,457.1 91.9,450.5 102,450.5 102,448 89,448 
					89,468.9 89,469 102,469 				"/>
				<path d="M102,448v2.5H91.9v6.6h9.7v2.5h-9.7v6.9H102v2.5H89v-0.1V448H102 M102,440H89c-4.4,0-8,3.6-8,8v20.9v0.1
					c0,4.4,3.6,8,8,8h13c4.4,0,8-3.6,8-8v-2.5c0-1.4-0.4-2.7-1-3.9c0.4-0.9,0.6-2,0.6-3v-2.5c0-1-0.2-2-0.5-2.9
					c0.6-1.1,0.9-2.4,0.9-3.7V448C110,443.6,106.4,440,102,440L102,440z"/>
			</g>
			<g>
				<path d="M120.8,458.5c0-6.9-2.5-10.5-7.7-10.5h-6v21h6C118.3,469,120.8,465.3,120.8,458.5z M112.9,466.4h-3v-16h3
					c3.2,0,4.8,2.3,4.8,6.3v3.4C117.7,464.1,116.1,466.4,112.9,466.4L112.9,466.4z"/>
				<path d="M113.1,448c5.2,0,7.7,3.6,7.7,10.5c0,6.8-2.5,10.5-7.7,10.5h-6v-21H113.1 M109.9,466.4h3l0,0c3.2,0,4.8-2.3,4.8-6.3
					v-3.4c0-4-1.6-6.3-4.8-6.3h-3V466.4 M113.1,440h-6c-4.4,0-8,3.6-8,8v21c0,4.4,3.6,8,8,8h6c7.6,0,15.7-4.9,15.7-18.5
					c0-5.2-1.1-9.3-3.4-12.5C122.6,442.1,118.2,440,113.1,440L113.1,440z M109.7,460.8L109.7,460.8L109.7,460.8z"/>
			</g>
			<g>
				<path d="M948.5,463.2h7l1.7,5.8h3.1l-6.3-20.9h-3.9l-6.3,20.9h3L948.5,463.2z M951.8,451.1h0.3l2.7,9.7H949L951.8,451.1z"/>
				<path d="M954,448.1l6.3,20.9h-3.1l-1.7-5.8h-7l-1.7,5.8h-3l6.3-20.9H954 M949,460.8h5.8l-2.7-9.7h-0.3L949,460.8 M954,440.1
					h-3.9c-3.5,0-6.6,2.3-7.7,5.7l-6.3,20.9c-0.7,2.4-0.3,5,1.2,7.1c1.5,2,3.9,3.2,6.4,3.2h3c2,0,3.8-0.7,5.2-1.9
					c1.4,1.2,3.2,1.9,5.2,1.9h3.1c2.5,0,4.9-1.2,6.4-3.2s2-4.7,1.2-7.1l-6.3-20.9C960.6,442.4,957.5,440.1,954,440.1L954,440.1z"/>
			</g>
			<g>
				<polygon points="977.2,466.5 967.4,466.5 967.4,448.1 964.5,448.1 964.5,469 977.2,469 				"/>
				<path d="M967.4,448.1v18.4h9.8v2.5h-12.7v-20.9H967.4 M967.4,440.1h-2.9c-4.4,0-8,3.6-8,8V469c0,4.4,3.6,8,8,8h12.7
					c4.4,0,8-3.6,8-8v-2.5c0-4.4-3.6-8-8-8h-1.8v-10.4C975.4,443.7,971.8,440.1,967.4,440.1L967.4,440.1z"/>
			</g>
			<g>
				<polygon points="986.5,469 989.4,469 989.4,450.6 996.2,450.6 996.2,448.1 979.7,448.1 979.7,450.6 986.5,450.6 				"/>
				<path d="M996.2,448.1v2.5h-6.8V469h-2.9v-18.4h-6.8v-2.5H996.2 M996.2,440.1h-16.5c-4.4,0-8,3.6-8,8v2.5c0,4,3,7.3,6.8,7.9V469
					c0,4.4,3.6,8,8,8h2.9c4.4,0,8-3.6,8-8v-10.5c3.8-0.6,6.8-3.9,6.8-7.9v-2.5C1004.2,443.7,1000.6,440.1,996.2,440.1L996.2,440.1z"
					/>
			</g>
			<g>
				<polygon points="502.2,498.2 498.2,498.2 498.2,502.2 498.2,527.2 498.2,531.2 502.2,531.2 527.2,531.2 531.2,531.2 
					531.2,527.2 531.2,502.2 531.2,498.2 527.2,498.2 				"/>
				<path d="M531.2,498.2v4v25v4h-4h-25h-4v-4v-25v-4h4h25H531.2 M531.2,490.2h-4h-25h-4c-4.4,0-8,3.6-8,8v4v25v4c0,4.4,3.6,8,8,8h4
					h25h4c4.4,0,8-3.6,8-8v-4v-25v-4C539.2,493.8,535.6,490.2,531.2,490.2L531.2,490.2z"/>
			</g>
		</g>
	</g>
	<g id="Layer_2_00000137120510985449027370000000324118422292484517_" class="st1">
		<g>
			<g>
				<polyline class="st4" points="185,185 177.6,177.6 163,163 161.1,161.1 				"/>
				<line class="st5" x1="431.9" y1="45.3" x2="428.3" y2="24.9"/>
				<line class="st4" x1="351.7" y1="66.8" x2="344.6" y2="47.3"/>
				<polyline class="st4" points="283.6,114.6 277.2,103.3 264.2,80.8 262.6,78 				"/>
				<polyline class="st4" points="110.9,281.5 101.9,276.4 83.9,266 81.7,264.7 				"/>
				<line class="st6" x1="66.8" y1="351.7" x2="47.3" y2="344.6"/>
				<line class="st6" x1="982.1" y1="344.6" x2="962.6" y2="351.7"/>
				<polyline class="st4" points="947.7,264.7 945.5,266 927.5,276.4 918.5,281.5 				"/>
				<polyline class="st4" points="766.8,78 765.2,80.8 752.2,103.3 745.8,114.6 				"/>
				<line class="st5" x1="684.8" y1="47.3" x2="677.7" y2="66.8"/>
				<line class="st5" x1="601.1" y1="24.9" x2="597.5" y2="45.3"/>
				<polyline class="st4" points="868.2,161.1 866.4,163 851.8,177.6 844.4,185 				"/>
				<line class="st5" x1="431.9" y1="45.3" x2="428.3" y2="24.9"/>
				<line class="st5" x1="351.7" y1="66.8" x2="344.6" y2="47.3"/>
				<polyline class="st4" points="283.4,113.8 250.9,57.6 246.9,50.7 				"/>
				<polyline class="st4" points="110.9,281.5 101.9,276.4 83.9,266 81.7,264.7 				"/>
				<line class="st6" x1="66.8" y1="351.7" x2="47.3" y2="344.6"/>
				<line class="st6" x1="982.1" y1="344.6" x2="962.6" y2="351.7"/>
				<polyline class="st4" points="947.7,264.7 945.5,266 927.5,276.4 918.5,281.5 				"/>
				<polyline class="st4" points="782.6,50.7 778.5,57.6 746,113.8 				"/>
				<line class="st5" x1="684.8" y1="47.3" x2="677.7" y2="66.8"/>
				<line class="st5" x1="601.1" y1="24.9" x2="597.5" y2="45.3"/>
			</g>
			<polygon class="st7" points="514.7,48.4 537.9,18.1 491.5,18.1 			"/>
			<g>
				<path class="st8" d="M444.4,140.6"/>
			</g>
			<polygon class="st7" points="514.7,48.4 537.9,18.1 491.5,18.1 			"/>
		</g>
		<g>
			<polyline class="st6" points="863.1,882.9 861.3,881.1 846.7,866.5 839.3,859.1 			"/>
			<polyline class="st6" points="179.9,859.1 172.5,866.5 157.9,881.1 156,882.9 			"/>
			<line class="st6" x1="596" y1="1019.2" x2="592.4" y2="998.8"/>
			<line class="st6" x1="679.7" y1="996.8" x2="672.6" y2="977.3"/>
			<polyline class="st6" points="759.6,962.4 758.3,960.2 747.9,942.2 742.8,933.2 			"/>
			<polyline class="st6" points="942.6,779.4 940.4,778.1 922.4,767.7 913.4,762.6 			"/>
			<line class="st6" x1="977" y1="699.5" x2="957.5" y2="692.4"/>
			<line class="st6" x1="40.2" y1="446.6" x2="19.8" y2="443"/>
			<line class="st6" x1="999.4" y1="615.8" x2="979" y2="612.2"/>
			<polyline class="st6" points="1009.6,529.4 1007,529.4 986.3,529.4 975.9,529.4 			"/>
			<line class="st6" x1="40.2" y1="612.2" x2="19.8" y2="615.8"/>
			<line class="st6" x1="999.4" y1="443" x2="979" y2="446.6"/>
			<line class="st6" x1="61.7" y1="692.4" x2="42.2" y2="699.5"/>
			<polyline class="st6" points="105.8,762.6 96.8,767.7 78.8,778.1 76.6,779.4 			"/>
			<polyline class="st6" points="276.4,933.2 271.3,942.2 260.9,960.2 259.6,962.4 			"/>
			<line class="st6" x1="346.6" y1="977.3" x2="339.5" y2="996.8"/>
			<line class="st6" x1="426.8" y1="998.8" x2="423.2" y2="1019.2"/>
			<polyline class="st6" points="863.1,882.9 861.3,881.1 846.7,866.5 839.3,859.1 			"/>
			<polyline class="st6" points="179.9,859.1 172.5,866.5 157.9,881.1 156,882.9 			"/>
			<line class="st6" x1="596" y1="1019.2" x2="592.4" y2="998.8"/>
			<line class="st6" x1="679.7" y1="996.8" x2="672.6" y2="977.3"/>
			<polyline class="st6" points="759.6,962.4 758.3,960.2 747.9,942.2 742.8,933.2 			"/>
			<polyline class="st6" points="942.6,779.4 940.4,778.1 922.4,767.7 913.4,762.6 			"/>
			<line class="st6" x1="977" y1="699.5" x2="957.5" y2="692.4"/>
			<line class="st6" x1="40.2" y1="446.6" x2="19.8" y2="443"/>
			<line class="st6" x1="999.4" y1="615.8" x2="979" y2="612.2"/>
			<polyline class="st6" points="1009.6,529.4 1007,529.4 986.3,529.4 975.9,529.4 			"/>
			<line class="st6" x1="40.2" y1="612.2" x2="19.8" y2="615.8"/>
			<line class="st6" x1="999.4" y1="443" x2="979" y2="446.6"/>
			<line class="st6" x1="61.7" y1="692.4" x2="42.2" y2="699.5"/>
			<polyline class="st6" points="105.8,762.6 96.8,767.7 78.8,778.1 76.6,779.4 			"/>
			<polyline class="st6" points="276.4,933.2 271.3,942.2 260.9,960.2 259.6,962.4 			"/>
			<line class="st6" x1="346.6" y1="977.3" x2="339.5" y2="996.8"/>
			<line class="st6" x1="426.8" y1="998.8" x2="423.2" y2="1019.2"/>
			<g>
				<g>
					<polygon points="628.2,551.7 628.2,506.5 790,506.5 790,523 644.7,523 644.7,551.7 					"/>
					<path class="st7" d="M788,508.5V521H642.7v28.8h-12.5v-41.2L788,508.5 M792,504.5h-4H630.2h-4v4v41.2v4h4h12.5h4v-4V525H788h4
						v-4v-12.5V504.5L792,504.5z"/>
				</g>
				<g>
					<polygon points="384.8,551.7 384.8,523 239.4,523 239.4,506.5 401.2,506.5 401.2,551.7 					"/>
					<path class="st7" d="M399.2,508.5v41.2h-12.5V521H241.4v-12.5H399.2 M403.2,504.5h-4H241.4h-4v4V521v4h4h141.4v24.8v4h4h12.5h4
						v-4v-41.2L403.2,504.5L403.2,504.5z"/>
				</g>
				<g>
					<polygon points="844.2,545.5 801.4,514.7 844.2,483.9 999,483.9 999,545.5 					"/>
					<path class="st7" d="M997,485.9v57.6H844.8l-40-28.8l40-28.8L997,485.9 M1001,481.9h-4H844.8h-1.3l-1,0.8l-40,28.8l-4.5,3.2
						l4.5,3.2l40,28.8l1,0.8h1.3H997h4v-4v-57.6V481.9L1001,481.9z"/>
				</g>
				<g>
					<polygon points="30.4,545.5 30.4,483.9 185.2,483.9 228,514.7 185.2,545.5 					"/>
					<path class="st7" d="M184.6,485.9l40,28.8l-40,28.8H32.4v-57.6H184.6 M185.9,481.9h-1.3H32.4h-4v4v57.6v4h4h152.2h1.3l1-0.8
						l40-28.8l4.5-3.2l-4.5-3.2l-40-28.8L185.9,481.9L185.9,481.9z"/>
				</g>
				<g>
					<rect x="500.2" y="500.2" class="st9" width="29" height="29"/>
					<path class="st7" d="M527.2,502.2v25h-25v-25H527.2 M531.2,498.2h-4h-25h-4v4v25v4h4h25h4v-4v-25V498.2L531.2,498.2z"/>
				</g>
				<g>
					<path d="M33.7,465.7l2-1.8c1.6,2,3.4,2.9,5.8,2.9c2.9,0,4.4-1.4,4.4-3.7c0-1.9-1-2.9-3.7-3.4l-2.3-0.4c-4-0.7-5.4-3-5.4-5.8
						c0-3.9,2.7-5.9,7.1-5.9c3.3,0,5.6,1.2,7,3.1l-1.9,1.8c-1.1-1.5-2.7-2.5-5.1-2.5c-2.7,0-4.1,1.1-4.1,3.4c0,1.8,0.9,2.9,3.7,3.4
						l2.2,0.4c4,0.7,5.4,2.9,5.4,5.8c0,3.9-2.7,6.3-7.5,6.3C37.6,469.3,35.2,467.8,33.7,465.7z"/>
					<path d="M53,468.9V448h7.7c3.9,0,6.1,2.3,6.1,6.1s-2.1,6.1-6.1,6.1h-4.8v8.6L53,468.9L53,468.9z M55.9,457.8h4.5
						c2.1,0,3.3-1,3.3-3v-1.4c0-1.9-1.2-3-3.3-3h-4.5V457.8z"/>
					<path d="M71,468.9V448h13v2.5H73.9v6.6h9.7v2.5h-9.7v6.9H84v2.5H71V468.9z"/>
					<path d="M89,468.9V448h13v2.5H91.9v6.6h9.7v2.5h-9.7v6.9H102v2.5H89V468.9z"/>
					<path d="M107.1,448h6c5.2,0,7.7,3.6,7.7,10.5c0,6.8-2.5,10.5-7.7,10.5h-6V448z M112.9,466.4c3.2,0,4.8-2.3,4.8-6.3v-3.4
						c0-4-1.6-6.3-4.8-6.3h-3v16L112.9,466.4L112.9,466.4z"/>
				</g>
				<g>
					<path d="M957.2,469l-1.7-5.8h-7l-1.7,5.8h-3l6.3-20.9h3.9l6.3,20.9H957.2z M952.1,451.1h-0.3l-2.8,9.7h5.8L952.1,451.1z"/>
					<path d="M964.5,469v-20.9h2.9v18.4h9.8v2.5H964.5z"/>
					<path d="M989.4,450.6V469h-2.9v-18.4h-6.8v-2.5h16.5v2.5H989.4z"/>
				</g>
				<g>
					<line class="st6" x1="491.8" y1="514.7" x2="537.6" y2="514.7"/>
				</g>
				<line class="st6" x1="514.7" y1="501" x2="514.7" y2="529.6"/>
				<g>
					<rect x="500.2" y="500.2" width="29" height="29"/>
					<path class="st7" d="M527.2,502.2v25h-25v-25H527.2 M531.2,498.2h-4h-25h-4v4v25v4h4h25h4v-4v-25V498.2L531.2,498.2z"/>
				</g>
			</g>
		</g>
		<line class="st6" x1="997.2" y1="258.2" x2="856" y2="333.2"/>
	</g>
</g>
<g id="Layer_2_00000027570052293762963680000018277835389933415082_">
	<g>
		<path class="st7" d="M241.4,241.4c35.5-35.5,76.8-63.4,122.8-82.8c47.6-20.1,98.2-30.4,150.4-30.4c52.2,0,102.8,10.2,150.4,30.4
			c46,19.5,87.3,47.3,122.8,82.8c27.4,27.4,50.3,58.3,68.2,92.2l141-75.3c-25.4-47.7-57.6-91.3-96.2-129.9
			c-50.1-50.1-108.6-89.5-173.6-117c-67.4-28.5-139-43-212.7-43S369.4-17.1,302,11.4c-65.1,27.5-123.5,66.9-173.6,117
			C89.8,167,57.6,210.5,32.3,258.2l141.2,75.1C191.3,299.5,214.1,268.7,241.4,241.4z"/>
	</g>
	<g>
		<g>
			<polygon class="st7" points="630.2,504.5 626.2,504.5 626.2,508.5 626.2,549.7 626.2,553.7 630.2,553.7 642.7,553.7 646.7,553.7 
				646.7,549.7 646.7,525 788,525 792,525 792,521 792,508.5 792,504.5 788,504.5 			"/>
			<path class="st7" d="M792,504.5v4V521v4h-4H646.7v24.8v4h-4h-12.5h-4v-4v-41.2v-4h4H788L792,504.5 M792,496.5h-4H630.2h-4
				c-4.4,0-8,3.6-8,8v4v41.2v4c0,4.4,3.6,8,8,8h4h12.5h4c4.4,0,8-3.6,8-8v-4V533H788h4c4.4,0,8-3.6,8-8v-4v-12.5v-4
				C800,500,796.4,496.5,792,496.5L792,496.5z"/>
		</g>
		<g>
			<polygon class="st7" points="241.4,504.5 237.4,504.5 237.4,508.5 237.4,521 237.4,525 241.4,525 382.8,525 382.8,549.7 
				382.8,553.7 386.8,553.7 399.2,553.7 403.2,553.7 403.2,549.7 403.2,508.5 403.2,504.5 399.2,504.5 			"/>
			<path class="st7" d="M403.2,504.5v4v41.2v4h-4h-12.5h-4v-4V525H241.4h-4v-4v-12.5v-4h4h157.9H403.2 M403.2,496.5h-4H241.4h-4
				c-4.4,0-8,3.6-8,8v4V521v4c0,4.4,3.6,8,8,8h4h133.4v16.8v4c0,4.4,3.6,8,8,8h4h12.5h4c4.4,0,8-3.6,8-8v-4v-41.2v-4
				C411.2,500,407.7,496.5,403.2,496.5L403.2,496.5z"/>
		</g>
		<g>
			<polygon class="st7" points="997,481.9 844.8,481.9 843.5,481.9 842.5,482.7 802.5,511.5 798,514.7 802.5,517.9 842.5,546.7 
				843.5,547.5 844.8,547.5 997,547.5 1001,547.5 1001,543.5 1001,485.9 1001,481.9 			"/>
			<path class="st7" d="M1001,481.9v4v57.6v4h-4H844.8h-1.3l-1-0.8l-40-28.8l-4.5-3.2l4.5-3.2l40-28.8l1-0.8h1.3H997L1001,481.9
				 M1001,473.9h-4H844.8h-1.3c-1.7,0-3.3,0.5-4.7,1.5l-1,0.8l-40,28.8l-4.5,3.2c-2.1,1.5-3.3,3.9-3.3,6.5s1.2,5,3.3,6.5l4.5,3.2
				l40,28.8l1,0.8c1.4,1,3,1.5,4.7,1.5h1.3H997h4c4.4,0,8-3.6,8-8v-4v-57.6v-4C1009,477.5,1005.4,473.9,1001,473.9L1001,473.9z"/>
		</g>
		<g>
			<path class="st7" d="M186.9,482.7l-1-0.8h-1.3H32.4h-4v4v57.6v4h4h152.2h1.3l1-0.8l40-28.8l4.5-3.2l-4.5-3.2L186.9,482.7z"/>
			<path class="st7" d="M185.9,481.9l1,0.8l40,28.8l4.5,3.2l-4.5,3.2l-40,28.8l-1,0.8h-1.3H32.4h-4v-4v-57.6v-4h4h152.2L185.9,481.9
				 M185.9,473.9h-1.3H32.4h-4c-4.4,0-8,3.6-8,8v4v57.6v4c0,4.4,3.6,8,8,8h4h152.2h1.3c1.7,0,3.3-0.5,4.7-1.5l1-0.8l40-28.8l4.5-3.2
				c2.1-1.5,3.3-3.9,3.3-6.5s-1.2-5-3.3-6.5l-4.5-3.2l-40-28.8l-1-0.8C189.2,474.4,187.6,473.9,185.9,473.9L185.9,473.9z"/>
		</g>
		<g>
			<path class="st7" d="M41.5,466.8c-2.4,0-4.2-0.9-5.8-2.9l-2,1.8c1.5,2.1,3.9,3.6,7.6,3.6c4.8,0,7.5-2.4,7.5-6.3
				c0-2.9-1.4-5.1-5.4-5.8l-2.2-0.4c-2.8-0.5-3.7-1.6-3.7-3.4c0-2.3,1.4-3.4,4.1-3.4c2.4,0,4,1,5.1,2.5l1.9-1.8
				c-1.4-1.9-3.7-3.1-7-3.1c-4.4,0-7.1,2-7.1,5.9c0,2.8,1.4,5.1,5.4,5.8l2.3,0.4c2.7,0.5,3.7,1.5,3.7,3.4
				C45.9,465.4,44.4,466.8,41.5,466.8z"/>
			<path class="st7" d="M41.6,447.6c3.3,0,5.6,1.2,7,3.1l-1.9,1.8c-1.1-1.5-2.7-2.5-5.1-2.5c-2.7,0-4.1,1.1-4.1,3.4
				c0,1.8,0.9,2.9,3.7,3.4l2.2,0.4c4,0.7,5.4,2.9,5.4,5.8c0,3.9-2.7,6.3-7.5,6.3c-3.7,0-6.1-1.5-7.6-3.6l2-1.8
				c1.6,2,3.4,2.9,5.8,2.9c2.9,0,4.4-1.4,4.4-3.7c0-1.9-1-2.9-3.7-3.4l-2.3-0.4c-4-0.7-5.4-3-5.4-5.8
				C34.5,449.6,37.2,447.6,41.6,447.6 M41.6,439.6c-9,0-15.1,5.6-15.1,13.9c0,2.4,0.5,4.6,1.5,6.6c-2.7,2.7-3.1,7.1-0.8,10.3
				c3.2,4.5,8.2,7,14.1,7c9.1,0,15.5-5.9,15.5-14.3c0-2.8-0.7-5.2-2-7.3c2.2-2.8,2.4-6.8,0.2-9.7C52,441.9,47.2,439.6,41.6,439.6
				L41.6,439.6z"/>
		</g>
		<g>
			<path class="st7" d="M55.9,460.2h4.8c4,0,6.1-2.3,6.1-6.1c0-3.8-2.2-6.1-6.1-6.1H53v20.8h2.9V460.2z M55.9,450.4h4.5
				c2.1,0,3.3,1.1,3.3,3v1.4c0,2-1.2,3-3.3,3h-4.5V450.4z"/>
			<path class="st7" d="M60.7,448c3.9,0,6.1,2.3,6.1,6.1c0,3.8-2.1,6.1-6.1,6.1h-4.8v8.6H53V448H60.7 M55.9,457.8h4.5
				c2.1,0,3.3-1,3.3-3v-1.4c0-1.9-1.2-3-3.3-3h-4.5V457.8 M60.7,440H53c-4.4,0-8,3.6-8,8v20.8c0,4.4,3.6,8,8,8h2.9c4.4,0,8-3.6,8-8
				v-0.9c6.6-1.3,10.9-6.6,10.9-13.8C74.8,445.8,69,440,60.7,440L60.7,440z"/>
		</g>
		<g>
			<polygon class="st7" points="84,466.5 73.9,466.5 73.9,459.6 83.6,459.6 83.6,457.1 73.9,457.1 73.9,450.5 84,450.5 84,448 
				71,448 71,468.9 71,469 84,469 			"/>
			<path class="st7" d="M84,448v2.5H73.9v6.6h9.7v2.5h-9.7v6.9H84v2.5H71v-0.1V448H84 M84,440H71c-4.4,0-8,3.6-8,8v20.9v0.1
				c0,4.4,3.6,8,8,8h13c4.4,0,8-3.6,8-8v-2.5c0-1.4-0.4-2.7-1-3.9c0.4-0.9,0.6-2,0.6-3v-2.5c0-1-0.2-2-0.5-2.9
				c0.6-1.1,0.9-2.4,0.9-3.7V448C92,443.6,88.4,440,84,440L84,440z"/>
		</g>
		<g>
			<polygon class="st7" points="102,466.5 91.9,466.5 91.9,459.6 101.6,459.6 101.6,457.1 91.9,457.1 91.9,450.5 102,450.5 102,448 
				89,448 89,468.9 89,469 102,469 			"/>
			<path class="st7" d="M102,448v2.5H91.9v6.6h9.7v2.5h-9.7v6.9H102v2.5H89v-0.1V448H102 M102,440H89c-4.4,0-8,3.6-8,8v20.9v0.1
				c0,4.4,3.6,8,8,8h13c4.4,0,8-3.6,8-8v-2.5c0-1.4-0.4-2.7-1-3.9c0.4-0.9,0.6-2,0.6-3v-2.5c0-1-0.2-2-0.5-2.9
				c0.6-1.1,0.9-2.4,0.9-3.7V448C110,443.6,106.4,440,102,440L102,440z"/>
		</g>
		<g>
			<path class="st7" d="M120.8,458.5c0-6.9-2.5-10.5-7.7-10.5h-6v21h6C118.3,469,120.8,465.3,120.8,458.5z M112.9,466.4h-3v-16h3
				c3.2,0,4.8,2.3,4.8,6.3v3.4C117.7,464.1,116.1,466.4,112.9,466.4L112.9,466.4z"/>
			<path class="st7" d="M113.1,448c5.2,0,7.7,3.6,7.7,10.5c0,6.8-2.5,10.5-7.7,10.5h-6v-21H113.1 M109.9,466.4h3l0,0
				c3.2,0,4.8-2.3,4.8-6.3v-3.4c0-4-1.6-6.3-4.8-6.3h-3V466.4 M113.1,440h-6c-4.4,0-8,3.6-8,8v21c0,4.4,3.6,8,8,8h6
				c7.6,0,15.7-4.9,15.7-18.5c0-5.2-1.1-9.3-3.4-12.5C122.6,442.1,118.2,440,113.1,440L113.1,440z M109.7,460.8L109.7,460.8
				L109.7,460.8z"/>
		</g>
		<g>
			<path class="st7" d="M948.5,463.2h7l1.7,5.8h3.1l-6.3-20.9h-3.9l-6.3,20.9h3L948.5,463.2z M951.8,451.1h0.3l2.7,9.7H949
				L951.8,451.1z"/>
			<path class="st7" d="M954,448.1l6.3,20.9h-3.1l-1.7-5.8h-7l-1.7,5.8h-3l6.3-20.9H954 M949,460.8h5.8l-2.7-9.7h-0.3L949,460.8
				 M954,440.1h-3.9c-3.5,0-6.6,2.3-7.7,5.7l-6.3,20.9c-0.7,2.4-0.3,5,1.2,7.1c1.5,2,3.9,3.2,6.4,3.2h3c2,0,3.8-0.7,5.2-1.9
				c1.4,1.2,3.2,1.9,5.2,1.9h3.1c2.5,0,4.9-1.2,6.4-3.2s2-4.7,1.2-7.1l-6.3-20.9C960.6,442.4,957.5,440.1,954,440.1L954,440.1z"/>
		</g>
		<g>
			<polygon class="st7" points="977.2,466.5 967.4,466.5 967.4,448.1 964.5,448.1 964.5,469 977.2,469 			"/>
			<path class="st7" d="M967.4,448.1v18.4h9.8v2.5h-12.7v-20.9H967.4 M967.4,440.1h-2.9c-4.4,0-8,3.6-8,8V469c0,4.4,3.6,8,8,8h12.7
				c4.4,0,8-3.6,8-8v-2.5c0-4.4-3.6-8-8-8h-1.8v-10.4C975.4,443.7,971.8,440.1,967.4,440.1L967.4,440.1z"/>
		</g>
		<g>
			<polygon class="st7" points="986.5,469 989.4,469 989.4,450.6 996.2,450.6 996.2,448.1 979.7,448.1 979.7,450.6 986.5,450.6 			
				"/>
			<path class="st7" d="M996.2,448.1v2.5h-6.8V469h-2.9v-18.4h-6.8v-2.5H996.2 M996.2,440.1h-16.5c-4.4,0-8,3.6-8,8v2.5
				c0,4,3,7.3,6.8,7.9V469c0,4.4,3.6,8,8,8h2.9c4.4,0,8-3.6,8-8v-10.5c3.8-0.6,6.8-3.9,6.8-7.9v-2.5
				C1004.2,443.7,1000.6,440.1,996.2,440.1L996.2,440.1z"/>
		</g>
		<g>
			<polygon class="st7" points="502.2,498.2 498.2,498.2 498.2,502.2 498.2,527.2 498.2,531.2 502.2,531.2 527.2,531.2 531.2,531.2 
				531.2,527.2 531.2,502.2 531.2,498.2 527.2,498.2 			"/>
			<path class="st7" d="M531.2,498.2v4v25v4h-4h-25h-4v-4v-25v-4h4h25H531.2 M531.2,490.2h-4h-25h-4c-4.4,0-8,3.6-8,8v4v25v4
				c0,4.4,3.6,8,8,8h4h25h4c4.4,0,8-3.6,8-8v-4v-25v-4C539.2,493.8,535.6,490.2,531.2,490.2L531.2,490.2z"/>
		</g>
	</g>
</g>
<rect x="56.8" y="468.8" width="11.1" height="11.1"/>
<rect x="968.2" y="451.1" width="16.6" height="13.7"/>
</svg>
