<?xml version="1.0" encoding="utf-8"?>
<!-- Generator: Adobe Illustrator 25.4.1, SVG Export Plug-In . SVG Version: 6.00 Build 0)  -->
<svg version="1.1" id="Layer_1" xmlns="http://www.w3.org/2000/svg" xmlns:xlink="http://www.w3.org/1999/xlink" x="0px" y="0px"
	 viewBox="0 0 7604.6 7604.6" style="enable-background:new 0 0 7604.6 7604.6;" xml:space="preserve">
<style type="text/css">
	.st0{display:none;}
	.st1{display:inline;fill:none;stroke:#000000;stroke-miterlimit:10;}
	.st2{display:inline;fill:none;}
	.st3{display:inline;}
	.st4{font-family:'ClincherMonoCode';}
	.st5{font-size:50px;}
	.st6{font-size:72px;}
	.st7{display:inline;fill:none;stroke:#CE1F45;stroke-miterlimit:10;}
	.st8{display:inline;opacity:0.2;fill:none;stroke:#000000;stroke-miterlimit:10;enable-background:new    ;}
	.st9{display:inline;fill:none;stroke:#000000;stroke-width:4;stroke-miterlimit:10;}
	.st10{display:inline;fill:none;stroke:#CE1F45;stroke-width:4;stroke-miterlimit:10;}
	.st11{fill:none;stroke:#000000;stroke-miterlimit:10;}
	.st12{fill:none;stroke:#000000;stroke-width:5;stroke-miterlimit:10;}
	.st13{display:inline;opacity:0.3;}
	.st14{fill:none;stroke:#ED2024;stroke-miterlimit:10;}
	.st15{fill:#A1834B;}
	.st16{fill:#2AAAE1;}
	.st17{display:none;fill:none;stroke:#000000;stroke-width:2.5;stroke-linecap:round;stroke-miterlimit:10;}
	.st18{display:none;fill:none;stroke:#000000;stroke-width:3.5;stroke-linecap:round;stroke-miterlimit:10;}
	.st19{display:inline;fill:none;stroke:#000000;stroke-width:5;stroke-miterlimit:10;}
	.st20{display:none;opacity:0.3;}
	.st21{display:inline;fill:none;stroke:#ED2024;stroke-miterlimit:10;}
</style>
<g id="WORKING">
	<g id="horizon">
	</g>
	<g id="compass_working" class="st0">
		<path class="st1" d="M8174.2,5168.5c-130.2,0-256.6-25.5-375.6-75.9c-114.9-48.6-218.1-118.2-306.7-206.8
			c-88.6-88.6-158.2-191.8-206.8-306.7c-50.3-119-75.9-245.4-75.9-375.6s25.5-256.6,75.9-375.6c48.6-114.9,118.2-218.1,206.8-306.7
			c88.6-88.6,191.8-158.2,306.7-206.8c119-50.3,245.4-75.9,375.6-75.9s256.6,25.5,375.6,75.9c114.9,48.6,218.1,118.2,306.7,206.8
			c88.6,88.6,158.2,191.8,206.8,306.7c50.3,119,75.9,245.4,75.9,375.6s-25.5,256.6-75.9,375.6c-48.6,114.9-118.2,218.1-206.8,306.7
			s-191.8,158.2-306.7,206.8C8430.8,5142.9,8304.5,5168.5,8174.2,5168.5z"/>
		<path class="st1" d="M8174.2,5123.5c-124.2,0-244.7-24.3-358.1-72.3c-109.6-46.3-207.9-112.7-292.4-197.2
			s-150.8-182.9-197.2-292.4c-48-113.4-72.3-233.9-72.3-358.1s24.3-244.7,72.3-358.1c46.3-109.6,112.7-207.9,197.2-292.4
			s182.9-150.8,292.4-197.1c113.4-48,233.9-72.3,358.1-72.3s244.7,24.3,358.1,72.3c109.5,46.3,207.9,112.7,292.4,197.1
			c84.5,84.5,150.8,182.9,197.2,292.4c48,113.4,72.3,233.9,72.3,358.1s-24.3,244.7-72.3,358.1c-46.3,109.5-112.7,207.9-197.2,292.4
			s-182.9,150.8-292.4,197.2C8418.9,5099.1,8298.4,5123.5,8174.2,5123.5z"/>
		<path class="st1" d="M8174.2,5163.5c-129.6,0-255.3-25.4-373.7-75.5c-114.3-48.4-217-117.6-305.1-205.7s-157.4-190.8-205.7-305.1
			c-50.1-118.4-75.5-244.1-75.5-373.7s25.4-255.3,75.5-373.7c48.4-114.3,117.6-217,205.7-305.1s190.8-157.4,305.1-205.7
			c118.4-50.1,244.1-75.5,373.7-75.5c129.6,0,255.3,25.4,373.7,75.5c114.3,48.4,217,117.6,305.1,205.7
			c88.1,88.1,157.4,190.8,205.7,305.1c50.1,118.4,75.5,244.1,75.5,373.7c0,129.6-25.4,255.3-75.5,373.7
			c-48.4,114.3-117.6,217-205.7,305.1c-88.2,88.1-190.8,157.4-305.1,205.7C8429.5,5138.1,8303.8,5163.5,8174.2,5163.5z"/>
		<circle class="st1" cx="8174.2" cy="4203.5" r="900"/>
		
			<rect x="7587.1" y="3519.3" transform="matrix(0.766 -0.6428 0.6428 0.766 -496.9363 5733.2715)" class="st2" width="80" height="60"/>
		<text transform="matrix(0.766 -0.6428 0.6428 0.766 7609.4116 3574.4314)" class="st3 st4 st5">32</text>
		
			<rect x="7482.6" y="3624.7" transform="matrix(0.6428 -0.766 0.766 0.6428 -112.6015 7067.8267)" class="st2" width="80" height="60"/>
		<text transform="matrix(0.6428 -0.766 0.766 0.6428 7509.2661 3682.0845)" class="st3 st4 st5">31</text>
		<rect x="7397.6" y="3745.9" transform="matrix(0.5 -0.866 0.866 0.5 448.6809 8329.0127)" class="st2" width="80" height="60"/>
		<text transform="matrix(0.5 -0.866 0.866 0.5 7429.3687 3805.2896)" class="st3 st4 st5">30</text>
		
			<rect x="7335.1" y="3879.7" transform="matrix(0.342 -0.9397 0.9397 0.342 1178.8149 9502.9453)" class="st2" width="80" height="60"/>
		<text transform="matrix(0.342 -0.9397 0.9397 0.342 7371.9839 3940.6541)" class="st3 st4 st5">29</text>
		
			<rect x="7297.2" y="4022.9" transform="matrix(0.1736 -0.9848 0.9848 0.1736 2072.1135 10575.0352)" class="st2" width="80" height="60"/>
		<text transform="matrix(0.1736 -0.9848 0.9848 0.1736 7339.8438 4083.7703)" class="st3 st4 st5">28</text>
		<rect x="7296.8" y="4160.4" class="st2" width="60" height="80"/>
		<text transform="matrix(0 -1 1 0 7350.8169 4221.9453)" class="st3 st4 st6">W</text>
		
			<rect x="7309.4" y="4308.2" transform="matrix(0.9848 -0.1736 0.1736 0.9848 -643.4246 1340.161)" class="st2" width="60" height="80"/>
		<text transform="matrix(-0.1736 -0.9848 0.9848 -0.1736 7352.3291 4376.1567)" class="st3 st4 st5">26</text>
		
			<rect x="7345.9" y="4451.4" transform="matrix(0.9397 -0.342 0.342 0.9397 -1091.2982 2793.3877)" class="st2" width="60" height="80"/>
		<text transform="matrix(-0.342 -0.9397 0.9397 -0.342 7393.27 4516.8955)" class="st3 st4 st5">25</text>
		<rect x="7407.5" y="4585.5" transform="matrix(0.866 -0.5 0.5 0.866 -1316.2997 4338.562)" class="st2" width="60" height="80"/>
		<text transform="matrix(-0.5 -0.866 0.866 -0.5 7459.3691 4647.7896)" class="st3 st4 st5">24</text>
		
			<rect x="7492.3" y="4706.7" transform="matrix(0.766 -0.6428 0.6428 0.766 -1291.2195 5946.1094)" class="st2" width="60" height="80"/>
		<text transform="matrix(-0.6428 -0.766 0.766 -0.6428 7547.7944 4765.1416)" class="st3 st4 st5">23</text>
		
			<rect x="7597.2" y="4812.2" transform="matrix(0.6428 -0.766 0.766 0.6428 -992.5255 7575.7271)" class="st2" width="60" height="80"/>
		<text transform="matrix(-0.766 -0.6428 0.6428 -0.766 7655.4478 4865.2896)" class="st3 st4 st5">22</text>
		<polyline class="st1" points="8794.5,4942.7 8791.3,4938.9 8765.6,4908.2 8752.7,4892.9 7595.7,3514 7582.8,3498.7 7557.1,3468.1 
			7553.9,3464.2 		"/>
		<polyline class="st1" points="8913.4,4823.7 8909.6,4820.5 8879,4794.8 8863.7,4782 7484.8,3624.9 7469.5,3612.1 7438.8,3586.4 
			7435,3583.2 		"/>
		<polyline class="st1" points="9009.9,4686 9005.6,4683.5 8971,4663.5 8953.6,4653.5 7394.8,3753.4 7377.5,3743.4 7342.8,3723.4 
			7338.5,3720.9 		"/>
		<polyline class="st1" points="9081,4533.5 9076.3,4531.8 9038.7,4518.1 9019.9,4511.3 7328.5,3895.6 7309.7,3888.8 7272.1,3875.1 
			7267.4,3873.4 		"/>
		<polyline class="st1" points="9124.5,4371 9119.6,4370.2 9080.2,4363.2 9060.5,4359.7 7287.9,4047.2 7268.2,4043.7 7228.8,4036.8 
			7223.9,4035.9 		"/>
		<polyline class="st1" points="9139.2,4203.5 9134.2,4203.5 9094.2,4203.5 9074.2,4203.5 7274.2,4203.5 7254.2,4203.5 
			7214.2,4203.5 7209.2,4203.5 		"/>
		<polyline class="st1" points="9124.5,4035.9 9119.6,4036.8 9080.2,4043.7 9060.5,4047.2 7287.9,4359.7 7268.2,4363.2 
			7228.8,4370.2 7223.9,4371 		"/>
		<polyline class="st1" points="9081,3873.4 9076.3,3875.1 9038.7,3888.8 9019.9,3895.6 7328.5,4511.3 7309.7,4518.1 7272.1,4531.8 
			7267.4,4533.5 		"/>
		<polyline class="st1" points="9009.9,3720.9 9005.6,3723.4 8971,3743.4 8953.6,3753.4 7394.8,4653.5 7377.5,4663.5 7342.8,4683.5 
			7338.5,4686 		"/>
		<polyline class="st1" points="8913.4,3583.2 8909.6,3586.4 8879,3612.1 8863.7,3624.9 7484.8,4782 7469.5,4794.8 7438.8,4820.5 
			7435,4823.7 		"/>
		<polyline class="st1" points="8794.5,3464.2 8791.3,3468.1 8765.6,3498.7 8752.7,3514 7595.7,4892.9 7582.8,4908.2 7557.1,4938.9 
			7553.9,4942.7 		"/>
		<polyline class="st7" points="8856.6,4885.8 8853,4882.3 8824.8,4854 8810.6,4839.9 7537.8,3567.1 7523.7,3552.9 7495.4,3524.6 
			7491.9,3521.1 		"/>
		<polyline class="st7" points="8964.7,4757 8960.6,4754.1 8927.8,4731.1 8911.5,4719.7 7437,3687.2 7420.6,3675.8 7387.8,3652.8 
			7383.7,3649.9 		"/>
		<polyline class="st7" points="9048.8,4611.3 9044.3,4609.2 9008,4592.3 8989.9,4583.8 7358.5,3823.1 7340.4,3814.6 7304.1,3797.7 
			7299.6,3795.6 		"/>
		<polyline class="st7" points="9106.3,4453.2 9101.5,4451.9 9062.9,4441.6 9043.5,4436.4 7304.9,3970.5 7285.6,3965.3 7246.9,3955 
			7242.1,3953.7 		"/>
		<polyline class="st7" points="9135.5,4287.6 9130.5,4287.1 9090.7,4283.6 9070.8,4281.9 7277.6,4125 7257.7,4123.3 7217.9,4119.8 
			7212.9,4119.4 		"/>
		<polyline class="st7" points="9135.5,4119.4 9130.5,4119.8 9090.7,4123.3 9070.8,4125 7277.6,4281.9 7257.7,4283.6 7217.9,4287.1 
			7212.9,4287.6 		"/>
		<polyline class="st7" points="9106.3,3953.7 9101.5,3955 9062.9,3965.3 9043.5,3970.5 7304.9,4436.4 7285.6,4441.6 7246.9,4451.9 
			7242.1,4453.2 		"/>
		<polyline class="st7" points="9048.8,3795.6 9044.3,3797.7 9008,3814.6 8989.9,3823.1 7358.5,4583.8 7340.4,4592.3 7304.1,4609.2 
			7299.6,4611.3 		"/>
		<polyline class="st7" points="8964.7,3649.9 8960.6,3652.8 8927.8,3675.8 8911.5,3687.2 7437,4719.7 7420.6,4731.1 7387.8,4754.1 
			7383.7,4757 		"/>
		<polyline class="st7" points="8856.6,3521.1 8853,3524.6 8824.8,3552.9 8810.6,3567.1 7537.8,4839.9 7523.7,4854 7495.4,4882.3 
			7491.9,4885.8 		"/>
	</g>
	<g id="compass_2" class="st0">
		<path class="st8" d="M8174.2,5168.5c-130.2,0-256.6-25.5-375.6-75.9c-114.9-48.6-218.1-118.2-306.7-206.8
			c-88.6-88.6-158.2-191.8-206.8-306.7c-50.3-119-75.9-245.4-75.9-375.6s25.5-256.6,75.9-375.6c48.6-114.9,118.2-218.1,206.8-306.7
			c88.6-88.6,191.8-158.2,306.7-206.8c119-50.3,245.4-75.9,375.6-75.9s256.6,25.5,375.6,75.9c114.9,48.6,218.1,118.2,306.7,206.8
			c88.6,88.6,158.2,191.8,206.8,306.7c50.3,119,75.9,245.4,75.9,375.6s-25.5,256.6-75.9,375.6c-48.6,114.9-118.2,218.1-206.8,306.7
			s-191.8,158.2-306.7,206.8C8430.8,5142.9,8304.5,5168.5,8174.2,5168.5z"/>
		<path class="st8" d="M8174.2,5123.5c-124.2,0-244.7-24.3-358.1-72.3c-109.6-46.3-207.9-112.7-292.4-197.2
			s-150.8-182.9-197.2-292.4c-48-113.4-72.3-233.9-72.3-358.1s24.3-244.7,72.3-358.1c46.3-109.6,112.7-207.9,197.2-292.4
			s182.9-150.8,292.4-197.1c113.4-48,233.9-72.3,358.1-72.3s244.7,24.3,358.1,72.3c109.5,46.3,207.9,112.7,292.4,197.1
			c84.5,84.5,150.8,182.9,197.2,292.4c48,113.4,72.3,233.9,72.3,358.1s-24.3,244.7-72.3,358.1c-46.3,109.5-112.7,207.9-197.2,292.4
			s-182.9,150.8-292.4,197.2C8418.9,5099.1,8298.4,5123.5,8174.2,5123.5z"/>
		<path class="st8" d="M8174.2,5163.5c-129.6,0-255.3-25.4-373.7-75.5c-114.3-48.4-217-117.6-305.1-205.7s-157.4-190.8-205.7-305.1
			c-50.1-118.4-75.5-244.1-75.5-373.7s25.4-255.3,75.5-373.7c48.4-114.3,117.6-217,205.7-305.1s190.8-157.4,305.1-205.7
			c118.4-50.1,244.1-75.5,373.7-75.5c129.6,0,255.3,25.4,373.7,75.5c114.3,48.4,217,117.6,305.1,205.7
			c88.1,88.1,157.4,190.8,205.7,305.1c50.1,118.4,75.5,244.1,75.5,373.7c0,129.6-25.4,255.3-75.5,373.7
			c-48.4,114.3-117.6,217-205.7,305.1c-88.2,88.1-190.8,157.4-305.1,205.7C8429.5,5138.1,8303.8,5163.5,8174.2,5163.5z"/>
		
			<rect x="7587.1" y="3519.3" transform="matrix(0.766 -0.6428 0.6428 0.766 -496.9363 5733.2715)" class="st2" width="80" height="60"/>
		<text transform="matrix(0.766 -0.6428 0.6428 0.766 7609.4116 3574.4314)" class="st3 st4 st5">32</text>
		
			<rect x="7482.6" y="3624.7" transform="matrix(0.6428 -0.766 0.766 0.6428 -112.6015 7067.8267)" class="st2" width="80" height="60"/>
		<text transform="matrix(0.6428 -0.766 0.766 0.6428 7509.2661 3682.0845)" class="st3 st4 st5">31</text>
		<rect x="7397.6" y="3745.9" transform="matrix(0.5 -0.866 0.866 0.5 448.6809 8329.0127)" class="st2" width="80" height="60"/>
		<text transform="matrix(0.5 -0.866 0.866 0.5 7429.3687 3805.2896)" class="st3 st4 st5">30</text>
		
			<rect x="7335.1" y="3879.7" transform="matrix(0.342 -0.9397 0.9397 0.342 1178.8149 9502.9453)" class="st2" width="80" height="60"/>
		<text transform="matrix(0.342 -0.9397 0.9397 0.342 7371.9839 3940.6541)" class="st3 st4 st5">29</text>
		
			<rect x="7297.2" y="4022.9" transform="matrix(0.1736 -0.9848 0.9848 0.1736 2072.1135 10575.0352)" class="st2" width="80" height="60"/>
		<text transform="matrix(0.1736 -0.9848 0.9848 0.1736 7339.8438 4083.7703)" class="st3 st4 st5">28</text>
		<rect x="7296.8" y="4160.4" class="st2" width="60" height="80"/>
		<text transform="matrix(0 -1 1 0 7350.8169 4221.9453)" class="st3 st4 st6">W</text>
		
			<rect x="7309.4" y="4308.2" transform="matrix(0.9848 -0.1736 0.1736 0.9848 -643.4246 1340.161)" class="st2" width="60" height="80"/>
		<text transform="matrix(-0.1736 -0.9848 0.9848 -0.1736 7352.3291 4376.1567)" class="st3 st4 st5">26</text>
		
			<rect x="7345.9" y="4451.4" transform="matrix(0.9397 -0.342 0.342 0.9397 -1091.2982 2793.3877)" class="st2" width="60" height="80"/>
		<text transform="matrix(-0.342 -0.9397 0.9397 -0.342 7393.27 4516.8955)" class="st3 st4 st5">25</text>
		<rect x="7407.5" y="4585.5" transform="matrix(0.866 -0.5 0.5 0.866 -1316.2997 4338.562)" class="st2" width="60" height="80"/>
		<text transform="matrix(-0.5 -0.866 0.866 -0.5 7459.3691 4647.7896)" class="st3 st4 st5">24</text>
		
			<rect x="7492.3" y="4706.7" transform="matrix(0.766 -0.6428 0.6428 0.766 -1291.2195 5946.1094)" class="st2" width="60" height="80"/>
		<text transform="matrix(-0.6428 -0.766 0.766 -0.6428 7547.7944 4765.1416)" class="st3 st4 st5">23</text>
		
			<rect x="7597.2" y="4812.2" transform="matrix(0.6428 -0.766 0.766 0.6428 -992.5255 7575.7271)" class="st2" width="60" height="80"/>
		<text transform="matrix(-0.766 -0.6428 0.6428 -0.766 7655.4478 4865.2896)" class="st3 st4 st5">22</text>
		<polyline class="st9" points="7595.7,3514 7582.8,3498.7 7557.1,3468.1 7553.9,3464.2 		"/>
		<polyline class="st9" points="7484.8,3624.9 7469.5,3612.1 7438.8,3586.4 7435,3583.2 		"/>
		<polyline class="st9" points="7394.8,3753.4 7377.5,3743.4 7342.8,3723.4 7338.5,3720.9 		"/>
		<polyline class="st9" points="7328.5,3895.6 7309.7,3888.8 7272.1,3875.1 7267.4,3873.4 		"/>
		<polyline class="st9" points="7287.9,4047.2 7268.2,4043.7 7228.8,4036.8 7223.9,4035.9 		"/>
		<polyline class="st9" points="7274.2,4203.5 7254.2,4203.5 7214.2,4203.5 7209.2,4203.5 		"/>
		<polyline class="st9" points="7287.9,4359.7 7268.2,4363.2 7228.8,4370.2 7223.9,4371 		"/>
		<polyline class="st9" points="7328.5,4511.3 7309.7,4518.1 7272.1,4531.8 7267.4,4533.5 		"/>
		<polyline class="st9" points="7394.8,4653.5 7377.5,4663.5 7342.8,4683.5 7338.5,4686 		"/>
		<polyline class="st9" points="7484.8,4782 7469.5,4794.8 7438.8,4820.5 7435,4823.7 		"/>
		<polyline class="st9" points="7595.7,4892.9 7582.8,4908.2 7557.1,4938.9 7553.9,4942.7 		"/>
		<line class="st10" x1="7523.7" y1="3552.9" x2="7495.4" y2="3524.6"/>
		<line class="st10" x1="7420.6" y1="3675.8" x2="7387.8" y2="3652.8"/>
		<line class="st10" x1="7340.4" y1="3814.6" x2="7304.1" y2="3797.7"/>
		<line class="st10" x1="7285.6" y1="3965.3" x2="7246.9" y2="3955"/>
		<line class="st10" x1="7257.7" y1="4123.3" x2="7217.9" y2="4119.8"/>
		<line class="st10" x1="7257.7" y1="4283.6" x2="7217.9" y2="4287.1"/>
		<line class="st10" x1="7285.6" y1="4441.6" x2="7246.9" y2="4451.9"/>
		<line class="st10" x1="7340.4" y1="4592.3" x2="7304.1" y2="4609.2"/>
		<line class="st10" x1="7420.6" y1="4731.1" x2="7387.8" y2="4754.1"/>
		<line class="st10" x1="7523.7" y1="4854" x2="7495.4" y2="4882.3"/>
	</g>
	<g id="compass_3" class="st0">
	</g>
	<g id="bank" class="st0">
		<g id="_x31_" class="st3">
			<path class="st11" d="M8174.2,5153.5c-128.2,0-252.6-25.1-369.8-74.7c-113.1-47.9-214.7-116.3-302-203.6s-155.7-188.8-203.6-302
				c-49.5-117.1-74.7-241.6-74.7-369.8s25.1-252.6,74.7-369.8c47.9-113.1,116.3-214.7,203.6-301.9s188.8-155.7,302-203.6
				c117.1-49.6,241.6-74.7,369.8-74.7c128.2,0,252.7,25.1,369.8,74.7c113.1,47.9,214.7,116.3,302,203.6s155.7,188.8,203.6,301.9
				c49.5,117.1,74.7,241.6,74.7,369.8c0,128.2-25.1,252.6-74.7,369.8c-47.8,113.1-116.3,214.7-203.6,302s-188.8,155.7-302,203.6
				C8426.8,5128.3,8302.4,5153.5,8174.2,5153.5z"/>
			<path class="st11" d="M8174.2,5168.5c-130.2,0-256.6-25.5-375.6-75.9c-114.9-48.6-218.1-118.2-306.7-206.8
				c-88.6-88.6-158.2-191.8-206.8-306.7c-50.3-119-75.9-245.4-75.9-375.6s25.5-256.6,75.9-375.6c48.6-114.9,118.2-218.1,206.8-306.7
				c88.6-88.6,191.8-158.2,306.7-206.8c119-50.3,245.4-75.9,375.6-75.9s256.6,25.5,375.6,75.9c114.9,48.6,218.1,118.2,306.7,206.8
				c88.6,88.6,158.2,191.8,206.8,306.7c50.3,119,75.9,245.4,75.9,375.6s-25.5,256.6-75.9,375.6c-48.6,114.9-118.2,218.1-206.8,306.7
				s-191.8,158.2-306.7,206.8C8430.8,5142.9,8304.5,5168.5,8174.2,5168.5z"/>
			<polyline class="st11" points="7394.7,3753.4 7351.3,3728.4 7338.5,3720.9 			"/>
			<polyline class="st11" points="7537.8,3567.1 7502.5,3531.7 7491.9,3521.1 			"/>
			<circle class="st11" cx="8174.2" cy="4203.5" r="900"/>
		</g>
		<g id="_x32_" class="st3">
			<line class="st12" x1="7381.6" y1="3745.9" x2="7351.3" y2="3728.4"/>
			<polyline class="st12" points="7537.8,3567.1 7527.2,3556.4 7502.5,3531.7 7491.9,3521.1 			"/>
			<polygon class="st11" points="7544.5,3573.8 7555.8,3615.6 7586.4,3585 			"/>
		</g>
		<g id="khLRve_1_" class="st13">
			
				<image style="overflow:visible;enable-background:new    ;" width="304" height="303" id="khLRve_2_" xlink:href="2B51EDE526B9EBC0.jpeg"  transform="matrix(7.1914 0 0 7.1914 7081.1123 3083.4541)">
			</image>
		</g>
		<g id="_x33_" class="st3">
			<path class="st11" d="M8174.2,5168.5c-130.2,0-256.6-25.5-375.6-75.9c-114.9-48.6-218.1-118.2-306.7-206.8
				c-88.6-88.6-158.2-191.8-206.8-306.7c-50.3-119-75.9-245.4-75.9-375.6s25.5-256.6,75.9-375.6c48.6-114.9,118.2-218.1,206.8-306.7
				c88.6-88.6,191.8-158.2,306.7-206.8c119-50.3,245.4-75.9,375.6-75.9s256.6,25.5,375.6,75.9c114.9,48.6,218.1,118.2,306.7,206.8
				c88.6,88.6,158.2,191.8,206.8,306.7c50.3,119,75.9,245.4,75.9,375.6s-25.5,256.6-75.9,375.6c-48.6,114.9-118.2,218.1-206.8,306.7
				s-191.8,158.2-306.7,206.8C8430.8,5142.9,8304.5,5168.5,8174.2,5168.5z"/>
			<path class="st11" d="M8174.2,5123.5c-124.2,0-244.7-24.3-358.1-72.3c-109.6-46.3-207.9-112.7-292.4-197.2
				s-150.8-182.9-197.2-292.4c-48-113.4-72.3-233.9-72.3-358.1s24.3-244.7,72.3-358.1c46.3-109.6,112.7-207.9,197.2-292.4
				s182.9-150.8,292.4-197.1c113.4-48,233.9-72.3,358.1-72.3s244.7,24.3,358.1,72.3c109.5,46.3,207.9,112.7,292.4,197.1
				c84.5,84.5,150.8,182.9,197.2,292.4c48,113.4,72.3,233.9,72.3,358.1s-24.3,244.7-72.3,358.1c-46.3,109.5-112.7,207.9-197.2,292.4
				s-182.9,150.8-292.4,197.2C8418.9,5099.1,8298.4,5123.5,8174.2,5123.5z"/>
			<path class="st11" d="M8174.2,5163.5c-129.6,0-255.3-25.4-373.7-75.5c-114.3-48.4-217-117.6-305.1-205.7
				s-157.4-190.8-205.7-305.1c-50.1-118.4-75.5-244.1-75.5-373.7s25.4-255.3,75.5-373.7c48.4-114.3,117.6-217,205.7-305.1
				s190.8-157.4,305.1-205.7c118.4-50.1,244.1-75.5,373.7-75.5c129.6,0,255.3,25.4,373.7,75.5c114.3,48.4,217,117.6,305.1,205.7
				c88.1,88.1,157.4,190.8,205.7,305.1c50.1,118.4,75.5,244.1,75.5,373.7c0,129.6-25.4,255.3-75.5,373.7
				c-48.4,114.3-117.6,217-205.7,305.1c-88.2,88.1-190.8,157.4-305.1,205.7C8429.5,5138.1,8303.8,5163.5,8174.2,5163.5z"/>
			<circle class="st11" cx="8174.2" cy="4203.5" r="900"/>
			<polyline class="st11" points="8856.6,4885.8 8853,4882.3 8824.8,4854 8810.6,4839.9 7537.8,3567.1 7523.7,3552.9 7495.4,3524.6 
				7491.9,3521.1 			"/>
			<polyline class="st11" points="8856.6,3521.1 8853,3524.6 8824.8,3552.9 8810.6,3567.1 7537.8,4839.9 7523.7,4854 7495.4,4882.3 
				7491.9,4885.8 			"/>
			<polyline class="st11" points="8794.5,4942.7 8791.3,4938.9 8765.6,4908.2 8752.7,4892.9 7595.7,3514 7582.8,3498.7 
				7557.1,3468.1 7553.9,3464.2 			"/>
			<polyline class="st11" points="8913.4,4823.7 8909.6,4820.5 8879,4794.8 8863.7,4782 7484.8,3624.9 7469.5,3612.1 7438.8,3586.4 
				7435,3583.2 			"/>
			<polyline class="st11" points="9009.9,4686 9005.6,4683.5 8971,4663.5 8953.6,4653.5 7394.8,3753.4 7377.5,3743.4 7342.8,3723.4 
				7338.5,3720.9 			"/>
			<polyline class="st11" points="9081,4533.5 9076.3,4531.8 9038.7,4518.1 9019.9,4511.3 7328.5,3895.6 7309.7,3888.8 
				7272.1,3875.1 7267.4,3873.4 			"/>
			<polyline class="st11" points="9124.5,4371 9119.6,4370.2 9080.2,4363.2 9060.5,4359.7 7287.9,4047.2 7268.2,4043.7 
				7228.8,4036.8 7223.9,4035.9 			"/>
			<polyline class="st11" points="9139.2,4203.5 9134.2,4203.5 9094.2,4203.5 9074.2,4203.5 7274.2,4203.5 7254.2,4203.5 
				7214.2,4203.5 7209.2,4203.5 			"/>
			<polyline class="st11" points="9124.5,4035.9 9119.6,4036.8 9080.2,4043.7 9060.5,4047.2 7287.9,4359.7 7268.2,4363.2 
				7228.8,4370.2 7223.9,4371 			"/>
			<polyline class="st11" points="9081,3873.4 9076.3,3875.1 9038.7,3888.8 9019.9,3895.6 7328.5,4511.3 7309.7,4518.1 
				7272.1,4531.8 7267.4,4533.5 			"/>
			<polyline class="st11" points="9009.9,3720.9 9005.6,3723.4 8971,3743.4 8953.6,3753.4 7394.8,4653.5 7377.5,4663.5 
				7342.8,4683.5 7338.5,4686 			"/>
			<polyline class="st11" points="8913.4,3583.2 8909.6,3586.4 8879,3612.1 8863.7,3624.9 7484.8,4782 7469.5,4794.8 7438.8,4820.5 
				7435,4823.7 			"/>
			<polyline class="st11" points="8794.5,3464.2 8791.3,3468.1 8765.6,3498.7 8752.7,3514 7595.7,4892.9 7582.8,4908.2 
				7557.1,4938.9 7553.9,4942.7 			"/>
		</g>
		<g id="_x34_" class="st3">
			<path class="st11" d="M8174.2,5168.5c-130.2,0-256.6-25.5-375.6-75.9c-114.9-48.6-218.1-118.2-306.7-206.8
				c-88.6-88.6-158.2-191.8-206.8-306.7c-50.3-119-75.9-245.4-75.9-375.6s25.5-256.6,75.9-375.6c48.6-114.9,118.2-218.1,206.8-306.7
				c88.6-88.6,191.8-158.2,306.7-206.8c119-50.3,245.4-75.9,375.6-75.9s256.6,25.5,375.6,75.9c114.9,48.6,218.1,118.2,306.7,206.8
				c88.6,88.6,158.2,191.8,206.8,306.7c50.3,119,75.9,245.4,75.9,375.6s-25.5,256.6-75.9,375.6c-48.6,114.9-118.2,218.1-206.8,306.7
				s-191.8,158.2-306.7,206.8C8430.8,5142.9,8304.5,5168.5,8174.2,5168.5z"/>
			<path class="st11" d="M8174.2,5123.5c-124.2,0-244.7-24.3-358.1-72.3c-109.6-46.3-207.9-112.7-292.4-197.2
				s-150.8-182.9-197.2-292.4c-48-113.4-72.3-233.9-72.3-358.1s24.3-244.7,72.3-358.1c46.3-109.6,112.7-207.9,197.2-292.4
				s182.9-150.8,292.4-197.1c113.4-48,233.9-72.3,358.1-72.3s244.7,24.3,358.1,72.3c109.5,46.3,207.9,112.7,292.4,197.1
				c84.5,84.5,150.8,182.9,197.2,292.4c48,113.4,72.3,233.9,72.3,358.1s-24.3,244.7-72.3,358.1c-46.3,109.5-112.7,207.9-197.2,292.4
				s-182.9,150.8-292.4,197.2C8418.9,5099.1,8298.4,5123.5,8174.2,5123.5z"/>
			<path class="st11" d="M8174.2,5163.5c-129.6,0-255.3-25.4-373.7-75.5c-114.3-48.4-217-117.6-305.1-205.7
				s-157.4-190.8-205.7-305.1c-50.1-118.4-75.5-244.1-75.5-373.7s25.4-255.3,75.5-373.7c48.4-114.3,117.6-217,205.7-305.1
				s190.8-157.4,305.1-205.7c118.4-50.1,244.1-75.5,373.7-75.5c129.6,0,255.3,25.4,373.7,75.5c114.3,48.4,217,117.6,305.1,205.7
				c88.1,88.1,157.4,190.8,205.7,305.1c50.1,118.4,75.5,244.1,75.5,373.7c0,129.6-25.4,255.3-75.5,373.7
				c-48.4,114.3-117.6,217-205.7,305.1c-88.2,88.1-190.8,157.4-305.1,205.7C8429.5,5138.1,8303.8,5163.5,8174.2,5163.5z"/>
			<circle class="st11" cx="8174.2" cy="4203.5" r="900"/>
			<polyline class="st14" points="8856.6,4885.8 8853,4882.3 8824.8,4854 8810.6,4839.9 7537.8,3567.1 7523.7,3552.9 7495.4,3524.6 
				7491.9,3521.1 			"/>
			<polyline class="st14" points="8856.6,3521.1 8853,3524.6 8824.8,3552.9 8810.6,3567.1 7537.8,4839.9 7523.7,4854 7495.4,4882.3 
				7491.9,4885.8 			"/>
			<polyline class="st11" points="8794.5,4942.7 8791.3,4938.9 8765.6,4908.2 8752.7,4892.9 7595.7,3514 7582.8,3498.7 
				7557.1,3468.1 7553.9,3464.2 			"/>
			<polyline class="st11" points="8913.4,4823.7 8909.6,4820.5 8879,4794.8 8863.7,4782 7484.8,3624.9 7469.5,3612.1 7438.8,3586.4 
				7435,3583.2 			"/>
			<polyline class="st11" points="9009.9,4686 9005.6,4683.5 8971,4663.5 8953.6,4653.5 7394.8,3753.4 7377.5,3743.4 7342.8,3723.4 
				7338.5,3720.9 			"/>
			<polyline class="st11" points="9081,4533.5 9076.3,4531.8 9038.7,4518.1 9019.9,4511.3 7328.5,3895.6 7309.7,3888.8 
				7272.1,3875.1 7267.4,3873.4 			"/>
			<polyline class="st11" points="9124.5,4371 9119.6,4370.2 9080.2,4363.2 9060.5,4359.7 7287.9,4047.2 7268.2,4043.7 
				7228.8,4036.8 7223.9,4035.9 			"/>
			<polyline class="st14" points="9139.2,4203.5 9134.2,4203.5 9094.2,4203.5 9074.2,4203.5 7274.2,4203.5 7254.2,4203.5 
				7214.2,4203.5 7209.2,4203.5 			"/>
			<polyline class="st11" points="9124.5,4035.9 9119.6,4036.8 9080.2,4043.7 9060.5,4047.2 7287.9,4359.7 7268.2,4363.2 
				7228.8,4370.2 7223.9,4371 			"/>
			<polyline class="st11" points="9081,3873.4 9076.3,3875.1 9038.7,3888.8 9019.9,3895.6 7328.5,4511.3 7309.7,4518.1 
				7272.1,4531.8 7267.4,4533.5 			"/>
			<polyline class="st11" points="9009.9,3720.9 9005.6,3723.4 8971,3743.4 8953.6,3753.4 7394.8,4653.5 7377.5,4663.5 
				7342.8,4683.5 7338.5,4686 			"/>
			<polyline class="st11" points="8913.4,3583.2 8909.6,3586.4 8879,3612.1 8863.7,3624.9 7484.8,4782 7469.5,4794.8 7438.8,4820.5 
				7435,4823.7 			"/>
			<polyline class="st11" points="8794.5,3464.2 8791.3,3468.1 8765.6,3498.7 8752.7,3514 7595.7,4892.9 7582.8,4908.2 
				7557.1,4938.9 7553.9,4942.7 			"/>
		</g>
		<g id="_x35_" class="st3">
			<path class="st11" d="M8174.2,5168.5c-130.2,0-256.6-25.5-375.6-75.9c-114.9-48.6-218.1-118.2-306.7-206.8
				c-88.6-88.6-158.2-191.8-206.8-306.7c-50.3-119-75.9-245.4-75.9-375.6s25.5-256.6,75.9-375.6c48.6-114.9,118.2-218.1,206.8-306.7
				c88.6-88.6,191.8-158.2,306.7-206.8c119-50.3,245.4-75.9,375.6-75.9s256.6,25.5,375.6,75.9c114.9,48.6,218.1,118.2,306.7,206.8
				c88.6,88.6,158.2,191.8,206.8,306.7c50.3,119,75.9,245.4,75.9,375.6s-25.5,256.6-75.9,375.6c-48.6,114.9-118.2,218.1-206.8,306.7
				s-191.8,158.2-306.7,206.8C8430.8,5142.9,8304.5,5168.5,8174.2,5168.5z"/>
			<path class="st11" d="M8174.2,5123.5c-124.2,0-244.7-24.3-358.1-72.3c-109.6-46.3-207.9-112.7-292.4-197.2
				s-150.8-182.9-197.2-292.4c-48-113.4-72.3-233.9-72.3-358.1s24.3-244.7,72.3-358.1c46.3-109.6,112.7-207.9,197.2-292.4
				s182.9-150.8,292.4-197.1c113.4-48,233.9-72.3,358.1-72.3s244.7,24.3,358.1,72.3c109.5,46.3,207.9,112.7,292.4,197.1
				c84.5,84.5,150.8,182.9,197.2,292.4c48,113.4,72.3,233.9,72.3,358.1s-24.3,244.7-72.3,358.1c-46.3,109.5-112.7,207.9-197.2,292.4
				s-182.9,150.8-292.4,197.2C8418.9,5099.1,8298.4,5123.5,8174.2,5123.5z"/>
			<path class="st11" d="M8174.2,5163.5c-129.6,0-255.3-25.4-373.7-75.5c-114.3-48.4-217-117.6-305.1-205.7
				s-157.4-190.8-205.7-305.1c-50.1-118.4-75.5-244.1-75.5-373.7s25.4-255.3,75.5-373.7c48.4-114.3,117.6-217,205.7-305.1
				s190.8-157.4,305.1-205.7c118.4-50.1,244.1-75.5,373.7-75.5c129.6,0,255.3,25.4,373.7,75.5c114.3,48.4,217,117.6,305.1,205.7
				c88.1,88.1,157.4,190.8,205.7,305.1c50.1,118.4,75.5,244.1,75.5,373.7c0,129.6-25.4,255.3-75.5,373.7
				c-48.4,114.3-117.6,217-205.7,305.1c-88.2,88.1-190.8,157.4-305.1,205.7C8429.5,5138.1,8303.8,5163.5,8174.2,5163.5z"/>
			<circle class="st11" cx="8174.2" cy="4203.5" r="900"/>
			<polyline class="st14" points="7537.8,3567.1 7523.7,3552.9 7495.4,3524.6 7491.9,3521.1 			"/>
			<polyline class="st14" points="7537.8,4839.9 7523.7,4854 7495.4,4882.3 7491.9,4885.8 			"/>
			<line class="st11" x1="7582.8" y1="3498.7" x2="7553.9" y2="3464.2"/>
			<line class="st11" x1="7469.5" y1="3612.1" x2="7438.8" y2="3586.4"/>
			<polyline class="st11" points="7394.8,3753.4 7377.5,3743.4 7342.8,3723.4 7338.5,3720.9 			"/>
			<line class="st11" x1="7309.7" y1="3888.8" x2="7272.1" y2="3875.1"/>
			<line class="st11" x1="7268.2" y1="4043.7" x2="7228.8" y2="4036.8"/>
			<polyline class="st14" points="7274.2,4203.5 7254.2,4203.5 7214.2,4203.5 7209.2,4203.5 			"/>
			<line class="st11" x1="7268.2" y1="4363.2" x2="7228.8" y2="4370.2"/>
			<line class="st11" x1="7309.7" y1="4518.1" x2="7272.1" y2="4531.8"/>
			<polyline class="st11" points="7394.8,4653.5 7377.5,4663.5 7342.8,4683.5 7338.5,4686 			"/>
			<line class="st11" x1="7469.5" y1="4794.8" x2="7438.8" y2="4820.5"/>
			<line class="st11" x1="7582.8" y1="4908.2" x2="7557.1" y2="4938.9"/>
		</g>
		<g class="st3">
			<polyline class="st14" points="7537.8,3567.1 7523.7,3552.9 7495.4,3524.6 7491.9,3521.1 			"/>
			<polyline class="st14" points="7537.8,4839.9 7523.7,4854 7495.4,4882.3 7491.9,4885.8 			"/>
			<polyline class="st11" points="7394.8,3753.4 7377.5,3743.4 7342.8,3723.4 7338.5,3720.9 			"/>
			<line class="st11" x1="7309.7" y1="3888.8" x2="7272.1" y2="3875.1"/>
			<line class="st11" x1="7268.2" y1="4043.7" x2="7228.8" y2="4036.8"/>
			<polyline class="st14" points="7274.2,4203.5 7254.2,4203.5 7214.2,4203.5 7209.2,4203.5 			"/>
			<line class="st11" x1="7268.2" y1="4363.2" x2="7228.8" y2="4370.2"/>
			<line class="st11" x1="7309.7" y1="4518.1" x2="7272.1" y2="4531.8"/>
			<polyline class="st11" points="7394.8,4653.5 7377.5,4663.5 7342.8,4683.5 7338.5,4686 			"/>
		</g>
	</g>
</g>
<g id="mask" class="st0">
</g>
<g id="GUIDES">
</g>
<g id="Layer_13" class="st0">
</g>
<g id="bank_final">
</g>
<g id="base_indicator_final">
</g>
<g id="compass_final">
</g>
<g id="horizon_final">
</g>
<g id="pitch_indicator_final">
</g>
<g id="_x3F__x3F__x3F_">
</g>
<rect y="3802.3" class="st15" width="7604.6" height="3802.3"/>
<rect class="st16" width="7604.6" height="3802.3"/>
<line class="st17" x1="3852.4" y1="5557.6" x2="3752.4" y2="5557.6"/>
<line class="st18" x1="3902.4" y1="5607.6" x2="3702.4" y2="5607.6"/>
<line class="st18" x1="3902.4" y1="1799" x2="3702.4" y2="1799"/>
<line class="st17" x1="3852.4" y1="1849" x2="3752.4" y2="1849"/>
<g id="_x31__2_" class="st0">
	<path class="st1" d="M4920.2,4653.5c-128.2,0-252.6-25.1-369.8-74.7c-113.1-47.9-214.7-116.3-302-203.6s-155.7-188.8-203.6-301.9
		c-49.6-117.1-74.7-241.6-74.7-369.8s25.1-252.6,74.7-369.8c47.9-113.1,116.3-214.7,203.6-301.9s188.8-155.7,302-203.6
		c117.1-49.6,241.6-74.7,369.8-74.7s252.6,25.1,369.8,74.7c113.1,47.9,214.7,116.3,302,203.6s155.7,188.8,203.6,301.9
		c49.5,117.1,74.7,241.6,74.7,369.8s-25.1,252.6-74.7,369.8c-47.9,113.1-116.3,214.7-203.6,301.9s-188.8,155.7-302,203.6
		C5172.8,4628.3,5048.4,4653.5,4920.2,4653.5z"/>
	<path class="st1" d="M4920.2,4668.5c-130.2,0-256.6-25.5-375.6-75.9c-114.9-48.6-218.1-118.2-306.7-206.8
		c-88.6-88.6-158.2-191.8-206.8-306.7c-50.3-119-75.9-245.4-75.9-375.6s25.5-256.6,75.9-375.6c48.6-114.9,118.2-218.1,206.8-306.7
		c88.6-88.6,191.8-158.2,306.7-206.8c119-50.3,245.4-75.9,375.6-75.9s256.6,25.5,375.6,75.9c114.9,48.6,218.1,118.2,306.7,206.8
		s158.2,191.8,206.8,306.7c50.3,119,75.9,245.4,75.9,375.6s-25.5,256.6-75.9,375.6c-48.6,114.9-118.2,218.1-206.8,306.7
		c-88.6,88.6-191.8,158.2-306.7,206.8C5176.8,4642.9,5050.4,4668.5,4920.2,4668.5z"/>
	<line class="st1" x1="4920.2" y1="2803.4" x2="4920.2" y2="2738.4"/>
	<polyline class="st1" points="4763.9,2817 4755.2,2767.7 4752.6,2753.1 	"/>
	<polyline class="st1" points="4612.3,2857.5 4595.2,2810.5 4590.1,2796.6 	"/>
	<polyline class="st1" points="4470.1,2923.9 4445.1,2880.6 4437.7,2867.7 	"/>
	<polyline class="st1" points="4140.6,3253.4 4097.3,3228.4 4084.4,3220.9 	"/>
	<polyline class="st1" points="5755.9,3220.9 5743.1,3228.4 5699.7,3253.4 	"/>
	<polyline class="st1" points="5402.7,2867.7 5395.3,2880.6 5370.2,2923.9 	"/>
	<polyline class="st1" points="5250.2,2796.6 5245.2,2810.5 5228.1,2857.5 	"/>
	<polyline class="st1" points="5087.7,2753.1 5085.2,2767.7 5076.5,2817 	"/>
	<polyline class="st1" points="4283.8,3067.1 4248.4,3031.7 4237.8,3021.1 	"/>
	<polyline class="st1" points="5602.5,3021.1 5591.9,3031.7 5556.6,3067.1 	"/>
	<circle class="st1" cx="4920.2" cy="3703.4" r="900"/>
	<polygon class="st1" points="4920.2,2814.4 4898.5,2851.9 4941.8,2851.9 	"/>
</g>
<g id="_x32__2_" class="st0">
	<polyline class="st19" points="4920.2,2916.3 4920.2,2901.3 4920.2,2851.3 	"/>
	<line class="st19" x1="4761.2" y1="2915" x2="4755.2" y2="2880.6"/>
	<line class="st19" x1="4607.1" y1="2956.3" x2="4595.2" y2="2923.4"/>
	<line class="st19" x1="4462.6" y1="3023.7" x2="4445.1" y2="2993.4"/>
	<line class="st19" x1="4127.6" y1="3358.7" x2="4097.3" y2="3341.2"/>
	<line class="st19" x1="5743.1" y1="3341.2" x2="5712.8" y2="3358.7"/>
	<line class="st19" x1="5395.3" y1="2993.4" x2="5377.8" y2="3023.7"/>
	<line class="st19" x1="5245.2" y1="2923.4" x2="5233.2" y2="2956.3"/>
	<line class="st19" x1="5085.2" y1="2880.6" x2="5078.9" y2="2916.3"/>
	<polyline class="st19" points="4283.8,3179.9 4273.2,3169.3 4248.4,3144.6 4237.8,3134 	"/>
	<polyline class="st19" points="5602.5,3134 5591.9,3144.6 5567.2,3169.3 5556.6,3179.9 	"/>
	<polygon class="st1" points="4920.2,2927.2 4898.5,2964.7 4941.8,2964.7 	"/>
	<polygon class="st1" points="4290.5,3186.7 4301.7,3228.5 4332.3,3197.9 	"/>
	<polygon class="st1" points="5549.8,3186.7 5508,3197.9 5538.6,3228.5 	"/>
</g>
<g id="khLRve_7_" class="st20">
	
		<image style="display:inline;overflow:visible;enable-background:new    ;" width="304" height="303" id="khLRve_8_" xlink:href="2B51EDE526B9EBC0.jpeg"  transform="matrix(7.1914 0 0 7.1914 3827.0698 2613.9541)">
	</image>
</g>
<g id="_x34__2_" class="st0">
	<path class="st1" d="M4920.2,4668.5c-130.2,0-256.6-25.5-375.6-75.9c-114.9-48.6-218.1-118.2-306.7-206.8
		c-88.6-88.6-158.2-191.8-206.8-306.7c-50.3-119-75.9-245.4-75.9-375.6s25.5-256.6,75.9-375.6c48.6-114.9,118.2-218.1,206.8-306.7
		c88.6-88.6,191.8-158.2,306.7-206.8c119-50.3,245.4-75.9,375.6-75.9s256.6,25.5,375.6,75.9c114.9,48.6,218.1,118.2,306.7,206.8
		s158.2,191.8,206.8,306.7c50.3,119,75.9,245.4,75.9,375.6s-25.5,256.6-75.9,375.6c-48.6,114.9-118.2,218.1-206.8,306.7
		c-88.6,88.6-191.8,158.2-306.7,206.8C5176.8,4642.9,5050.4,4668.5,4920.2,4668.5z"/>
	<path class="st1" d="M4920.2,4623.5c-124.2,0-244.7-24.3-358.1-72.3c-109.6-46.3-207.9-112.7-292.4-197.2s-150.8-182.9-197.2-292.4
		c-48-113.4-72.3-233.9-72.3-358.1s24.3-244.7,72.3-358.1c46.3-109.6,112.7-207.9,197.2-292.4s182.9-150.8,292.4-197.1
		c113.4-48,233.9-72.3,358.1-72.3s244.7,24.3,358.1,72.3c109.5,46.3,207.9,112.7,292.4,197.1s150.8,182.9,197.2,292.4
		c48,113.4,72.3,233.9,72.3,358.1s-24.3,244.7-72.3,358.1c-46.3,109.5-112.7,207.9-197.2,292.4s-182.9,150.8-292.4,197.2
		C5164.8,4599.1,5044.4,4623.5,4920.2,4623.5z"/>
	<path class="st1" d="M4920.2,4663.5c-129.6,0-255.3-25.4-373.7-75.5c-114.3-48.4-217-117.6-305.1-205.7s-157.4-190.8-205.7-305.1
		c-50.1-118.4-75.5-244.1-75.5-373.7s25.4-255.3,75.5-373.7c48.4-114.3,117.6-217,205.7-305.1s190.8-157.4,305.1-205.7
		c118.4-50.1,244.1-75.5,373.7-75.5s255.3,25.4,373.7,75.5c114.3,48.4,217,117.6,305.1,205.7c88.1,88.1,157.4,190.8,205.7,305.1
		c50.1,118.4,75.5,244.1,75.5,373.7s-25.4,255.3-75.5,373.7c-48.4,114.3-117.6,217-205.7,305.1s-190.8,157.4-305.1,205.7
		C5175.5,4638.1,5049.7,4663.5,4920.2,4663.5z"/>
	<circle class="st1" cx="4920.2" cy="3703.4" r="900"/>
	<polyline class="st21" points="5602.5,4385.8 5599,4382.3 5570.7,4354 5556.6,4339.9 4283.8,3067.1 4269.6,3052.9 4241.3,3024.6 
		4237.8,3021.1 	"/>
	<polyline class="st21" points="5602.5,3021.1 5599,3024.6 5570.7,3052.9 5556.6,3067.1 4283.8,4339.9 4269.6,4354 4241.3,4382.3 
		4237.8,4385.8 	"/>
	<polyline class="st21" points="4920.2,4668.5 4920.2,4663.5 4920.2,4623.5 4920.2,4603.5 4920.2,2803.4 4920.2,2783.4 
		4920.2,2743.4 4920.2,2738.4 	"/>
	<polyline class="st1" points="5087.7,4653.8 5086.9,4648.9 5079.9,4609.5 5076.5,4589.8 4763.9,2817.1 4760.4,2797.4 4753.5,2758 
		4752.6,2753.1 	"/>
	<polyline class="st1" points="5250.2,4610.3 5248.5,4605.6 5234.8,4568 5228,4549.2 4612.4,2857.7 4605.5,2838.9 4591.8,2801.4 
		4590.1,2796.6 	"/>
	<polyline class="st1" points="5402.7,4539.2 5400.2,4534.8 5380.2,4500.2 5370.2,4482.9 4470.2,2924 4460.2,2906.7 4440.2,2872.1 
		4437.7,2867.7 	"/>
	<polyline class="st1" points="5540.5,4442.7 5537.2,4438.9 5511.5,4408.2 5498.7,4392.9 4341.7,3014 4328.8,2998.7 4303.1,2968.1 
		4299.9,2964.2 	"/>
	<polyline class="st1" points="5659.4,4323.7 5655.6,4320.5 5624.9,4294.8 5609.6,4282 4230.7,3124.9 4215.4,3112.1 4184.8,3086.4 
		4180.9,3083.2 	"/>
	<polyline class="st1" points="5755.9,4186 5751.5,4183.5 5716.9,4163.5 5699.6,4153.5 4140.7,3253.4 4123.4,3243.4 4088.8,3223.4 
		4084.4,3220.9 	"/>
	<polyline class="st1" points="5827,4033.5 5822.3,4031.8 5784.7,4018.1 5765.9,4011.3 4074.4,3395.6 4055.6,3388.8 4018.1,3375.1 
		4013.4,3373.4 	"/>
	<polyline class="st1" points="5870.5,3871 5865.6,3870.2 5826.2,3863.2 5806.5,3859.7 4033.8,3547.2 4014.1,3543.7 3974.8,3536.8 
		3969.8,3535.9 	"/>
	<polyline class="st21" points="5885.2,3703.4 5880.2,3703.4 5840.2,3703.4 5820.2,3703.4 4020.2,3703.4 4000.2,3703.4 
		3960.2,3703.4 3955.2,3703.4 	"/>
	<polyline class="st1" points="5870.5,3535.9 5865.6,3536.8 5826.2,3543.7 5806.5,3547.2 4033.8,3859.7 4014.1,3863.2 
		3974.8,3870.2 3969.8,3871 	"/>
	<polyline class="st1" points="5827,3373.4 5822.3,3375.1 5784.7,3388.8 5765.9,3395.6 4074.4,4011.3 4055.6,4018.1 4018.1,4031.8 
		4013.4,4033.5 	"/>
	<polyline class="st1" points="5755.9,3220.9 5751.5,3223.4 5716.9,3243.4 5699.6,3253.4 4140.7,4153.5 4123.4,4163.5 
		4088.8,4183.5 4084.4,4186 	"/>
	<polyline class="st1" points="5659.4,3083.2 5655.6,3086.4 5624.9,3112.1 5609.6,3124.9 4230.7,4282 4215.4,4294.8 4184.8,4320.5 
		4180.9,4323.7 	"/>
	<polyline class="st1" points="5540.5,2964.2 5537.2,2968.1 5511.5,2998.7 5498.7,3014 4341.7,4392.9 4328.8,4408.2 4303.1,4438.9 
		4299.9,4442.7 	"/>
	<polyline class="st1" points="5402.7,2867.7 5400.2,2872.1 5380.2,2906.7 5370.2,2924 4470.2,4482.9 4460.2,4500.2 4440.2,4534.8 
		4437.7,4539.2 	"/>
	<polyline class="st1" points="5250.2,2796.6 5248.5,2801.4 5234.8,2838.9 5228,2857.7 4612.4,4549.2 4605.5,4568 4591.8,4605.6 
		4590.1,4610.3 	"/>
	<polyline class="st1" points="5087.7,2753.1 5086.9,2758 5079.9,2797.4 5076.5,2817.1 4763.9,4589.8 4760.4,4609.5 4753.5,4648.9 
		4752.6,4653.8 	"/>
</g>
<g id="_x35__2_" class="st0">
	<path class="st1" d="M4920.2,4668.5c-130.2,0-256.6-25.5-375.6-75.9c-114.9-48.6-218.1-118.2-306.7-206.8
		c-88.6-88.6-158.2-191.8-206.8-306.7c-50.3-119-75.9-245.4-75.9-375.6s25.5-256.6,75.9-375.6c48.6-114.9,118.2-218.1,206.8-306.7
		c88.6-88.6,191.8-158.2,306.7-206.8c119-50.3,245.4-75.9,375.6-75.9s256.6,25.5,375.6,75.9c114.9,48.6,218.1,118.2,306.7,206.8
		s158.2,191.8,206.8,306.7c50.3,119,75.9,245.4,75.9,375.6s-25.5,256.6-75.9,375.6c-48.6,114.9-118.2,218.1-206.8,306.7
		c-88.6,88.6-191.8,158.2-306.7,206.8C5176.8,4642.9,5050.4,4668.5,4920.2,4668.5z"/>
	<path class="st1" d="M4920.2,4623.5c-124.2,0-244.7-24.3-358.1-72.3c-109.6-46.3-207.9-112.7-292.4-197.2s-150.8-182.9-197.2-292.4
		c-48-113.4-72.3-233.9-72.3-358.1s24.3-244.7,72.3-358.1c46.3-109.6,112.7-207.9,197.2-292.4s182.9-150.8,292.4-197.1
		c113.4-48,233.9-72.3,358.1-72.3s244.7,24.3,358.1,72.3c109.5,46.3,207.9,112.7,292.4,197.1s150.8,182.9,197.2,292.4
		c48,113.4,72.3,233.9,72.3,358.1s-24.3,244.7-72.3,358.1c-46.3,109.5-112.7,207.9-197.2,292.4s-182.9,150.8-292.4,197.2
		C5164.8,4599.1,5044.4,4623.5,4920.2,4623.5z"/>
	<path class="st1" d="M4920.2,4663.5c-129.6,0-255.3-25.4-373.7-75.5c-114.3-48.4-217-117.6-305.1-205.7s-157.4-190.8-205.7-305.1
		c-50.1-118.4-75.5-244.1-75.5-373.7s25.4-255.3,75.5-373.7c48.4-114.3,117.6-217,205.7-305.1s190.8-157.4,305.1-205.7
		c118.4-50.1,244.1-75.5,373.7-75.5s255.3,25.4,373.7,75.5c114.3,48.4,217,117.6,305.1,205.7c88.1,88.1,157.4,190.8,205.7,305.1
		c50.1,118.4,75.5,244.1,75.5,373.7s-25.4,255.3-75.5,373.7c-48.4,114.3-117.6,217-205.7,305.1s-190.8,157.4-305.1,205.7
		C5175.5,4638.1,5049.7,4663.5,4920.2,4663.5z"/>
	<circle class="st1" cx="4920.2" cy="3703.4" r="900"/>
	<polyline class="st21" points="4283.8,3067.1 4269.6,3052.9 4241.3,3024.6 4237.8,3021.1 	"/>
	<polyline class="st21" points="5602.5,4385.8 5599,4382.3 5570.7,4354 5556.6,4339.9 	"/>
	<polyline class="st21" points="4283.8,4339.9 4269.6,4354 4241.3,4382.3 4237.8,4385.8 	"/>
	<polyline class="st21" points="5602.5,3021.1 5599,3024.6 5570.7,3052.9 5556.6,3067.1 	"/>
	<polyline class="st21" points="4920.2,2803.4 4920.2,2783.4 4920.2,2743.4 4920.2,2738.4 	"/>
	<polyline class="st21" points="4920.2,4668.5 4920.2,4663.5 4920.2,4623.5 4920.2,4603.5 	"/>
	<line class="st1" x1="4760.4" y1="2797.4" x2="4753.5" y2="2758"/>
	<line class="st1" x1="5086.9" y1="4648.9" x2="5079.9" y2="4609.5"/>
	<line class="st1" x1="4605.5" y1="2838.9" x2="4591.8" y2="2801.4"/>
	<line class="st1" x1="5248.5" y1="4605.6" x2="5234.8" y2="4568"/>
	<polyline class="st1" points="4470.2,2924 4460.2,2906.7 4440.2,2872.1 4437.7,2867.7 	"/>
	<polyline class="st1" points="5402.7,4539.2 5400.2,4534.8 5380.2,4500.2 5370.2,4482.9 	"/>
	<line class="st1" x1="4328.8" y1="2998.7" x2="4299.9" y2="2964.2"/>
	<line class="st1" x1="5537.2" y1="4438.9" x2="5511.5" y2="4408.2"/>
	<line class="st1" x1="4215.4" y1="3112.1" x2="4184.8" y2="3086.4"/>
	<line class="st1" x1="5655.6" y1="4320.5" x2="5624.9" y2="4294.8"/>
	<polyline class="st1" points="4140.7,3253.4 4123.4,3243.4 4088.8,3223.4 4084.4,3220.9 	"/>
	<polyline class="st1" points="5755.9,4186 5751.5,4183.5 5716.9,4163.5 5699.6,4153.5 	"/>
	<line class="st1" x1="4055.6" y1="3388.8" x2="4018.1" y2="3375.1"/>
	<line class="st1" x1="5822.3" y1="4031.8" x2="5784.7" y2="4018.1"/>
	<line class="st1" x1="4014.1" y1="3543.7" x2="3974.8" y2="3536.8"/>
	<line class="st1" x1="5865.6" y1="3870.2" x2="5826.2" y2="3863.2"/>
	<polyline class="st21" points="4020.2,3703.4 4000.2,3703.4 3960.2,3703.4 3955.2,3703.4 	"/>
	<polyline class="st21" points="5885.2,3703.4 5880.2,3703.4 5840.2,3703.4 5820.2,3703.4 	"/>
	<line class="st1" x1="4014.1" y1="3863.2" x2="3974.8" y2="3870.2"/>
	<line class="st1" x1="5865.6" y1="3536.8" x2="5826.2" y2="3543.7"/>
	<line class="st1" x1="4055.6" y1="4018.1" x2="4018.1" y2="4031.8"/>
	<line class="st1" x1="5822.3" y1="3375.1" x2="5784.7" y2="3388.8"/>
	<polyline class="st1" points="4140.7,4153.5 4123.4,4163.5 4088.8,4183.5 4084.4,4186 	"/>
	<polyline class="st1" points="5755.9,3220.9 5751.5,3223.4 5716.9,3243.4 5699.6,3253.4 	"/>
	<line class="st1" x1="4215.4" y1="4294.8" x2="4184.8" y2="4320.5"/>
	<line class="st1" x1="5655.6" y1="3086.4" x2="5624.9" y2="3112.1"/>
	<line class="st1" x1="4328.8" y1="4408.2" x2="4303.1" y2="4438.9"/>
	<line class="st1" x1="5537.2" y1="2968.1" x2="5511.5" y2="2998.7"/>
	<polyline class="st1" points="4470.2,4482.9 4460.2,4500.2 4440.2,4534.8 4437.7,4539.2 	"/>
	<polyline class="st1" points="5402.7,2867.7 5400.2,2872.1 5380.2,2906.7 5370.2,2924 	"/>
	<line class="st1" x1="4605.5" y1="4568" x2="4591.8" y2="4605.6"/>
	<line class="st1" x1="5248.5" y1="2801.4" x2="5234.8" y2="2838.9"/>
	<line class="st1" x1="4760.4" y1="4609.5" x2="4753.5" y2="4648.9"/>
	<line class="st1" x1="5086.9" y1="2758" x2="5079.9" y2="2797.4"/>
</g>
</svg>
