<?xml version="1.0" encoding="utf-8"?>
<!-- Generator: Adobe Illustrator 25.4.1, SVG Export Plug-In . SVG Version: 6.00 Build 0)  -->
<svg version="1.1" id="Layer_1" xmlns="http://www.w3.org/2000/svg" xmlns:xlink="http://www.w3.org/1999/xlink" x="0px" y="0px"
	 viewBox="0 0 45 45" style="enable-background:new 0 0 45 45;" xml:space="preserve">
<style type="text/css">
	.st0{fill:#FFFFFF;}
</style>
<g>
	<g>
		<path class="st0" d="M21.2,36L21.2,36c0.2,0.2,0.2,0.6,0,0.9L18,40.1c-0.2,0.2-0.6,0.2-0.9,0l0,0c-0.2-0.2-0.2-0.6,0-0.9l3.2-3.2
			C20.5,35.8,20.9,35.8,21.2,36z"/>
		<path class="st0" d="M17.1,29.3L17.1,29.3c0.2-0.2,0.6-0.2,0.9,0l3.2,3.2c0.2,0.2,0.2,0.6,0,0.9l0,0c-0.2,0.2-0.6,0.2-0.9,0
			l-3.2-3.2C16.9,30,16.9,29.6,17.1,29.3z"/>
		<path class="st0" d="M23.8,36L23.8,36c0.2-0.2,0.6-0.2,0.9,0l3.2,3.2c0.2,0.2,0.2,0.6,0,0.9l0,0c-0.2,0.2-0.6,0.2-0.9,0l-3.2-3.2
			C23.6,36.7,23.6,36.3,23.8,36z"/>
		<path class="st0" d="M27.9,29.3L27.9,29.3c0.2,0.2,0.2,0.6,0,0.9l-3.2,3.2c-0.2,0.2-0.6,0.2-0.9,0l0,0c-0.2-0.2-0.2-0.6,0-0.9
			l3.2-3.2C27.2,29.1,27.6,29.1,27.9,29.3z"/>
	</g>
	<g>
		<path class="st0" d="M21.2,11.6L21.2,11.6c0.2,0.2,0.2,0.6,0,0.9L18,15.7c-0.2,0.2-0.6,0.2-0.9,0l0,0c-0.2-0.2-0.2-0.6,0-0.9
			l3.2-3.2C20.5,11.4,20.9,11.4,21.2,11.6z"/>
		<path class="st0" d="M17.1,4.9L17.1,4.9c0.2-0.2,0.6-0.2,0.9,0l3.2,3.2c0.2,0.2,0.2,0.6,0,0.9l0,0c-0.2,0.2-0.6,0.2-0.9,0
			l-3.2-3.2C16.9,5.6,16.9,5.2,17.1,4.9z"/>
		<path class="st0" d="M23.8,11.6L23.8,11.6c0.2-0.2,0.6-0.2,0.9,0l3.2,3.2c0.2,0.2,0.2,0.6,0,0.9l0,0c-0.2,0.2-0.6,0.2-0.9,0
			l-3.2-3.2C23.6,12.2,23.6,11.9,23.8,11.6z"/>
		<path class="st0" d="M27.9,4.9L27.9,4.9c0.2,0.2,0.2,0.6,0,0.9L24.7,9c-0.2,0.2-0.6,0.2-0.9,0l0,0c-0.2-0.2-0.2-0.6,0-0.9L27,4.9
			C27.2,4.7,27.6,4.7,27.9,4.9z"/>
	</g>
</g>
<g>
	<g>
		<path class="st0" d="M36,23.8L36,23.8c0.2-0.2,0.6-0.2,0.9,0l3.2,3.2c0.2,0.2,0.2,0.6,0,0.9l0,0c-0.2,0.2-0.6,0.2-0.9,0L36,24.7
			C35.8,24.5,35.8,24.1,36,23.8z"/>
		<path class="st0" d="M29.3,27.9L29.3,27.9c-0.2-0.2-0.2-0.6,0-0.9l3.2-3.2c0.2-0.2,0.6-0.2,0.9,0l0,0c0.2,0.2,0.2,0.6,0,0.9
			l-3.2,3.2C30,28.1,29.6,28.1,29.3,27.9z"/>
		<path class="st0" d="M36,21.2L36,21.2c-0.2-0.2-0.2-0.6,0-0.9l3.2-3.2c0.2-0.2,0.6-0.2,0.9,0l0,0c0.2,0.2,0.2,0.6,0,0.9l-3.2,3.2
			C36.7,21.4,36.3,21.4,36,21.2z"/>
		<path class="st0" d="M29.3,17.1L29.3,17.1c0.2-0.2,0.6-0.2,0.9,0l3.2,3.2c0.2,0.2,0.2,0.6,0,0.9l0,0c-0.2,0.2-0.6,0.2-0.9,0
			L29.3,18C29.1,17.8,29.1,17.4,29.3,17.1z"/>
	</g>
	<g>
		<path class="st0" d="M11.6,23.8L11.6,23.8c0.2-0.2,0.6-0.2,0.9,0l3.2,3.2c0.2,0.2,0.2,0.6,0,0.9l0,0c-0.2,0.2-0.6,0.2-0.9,0
			l-3.2-3.2C11.4,24.5,11.4,24.1,11.6,23.8z"/>
		<path class="st0" d="M4.9,27.9L4.9,27.9c-0.2-0.2-0.2-0.6,0-0.9l3.2-3.2c0.2-0.2,0.6-0.2,0.9,0l0,0c0.2,0.2,0.2,0.6,0,0.9
			l-3.2,3.2C5.6,28.1,5.2,28.1,4.9,27.9z"/>
		<path class="st0" d="M11.6,21.2L11.6,21.2c-0.2-0.2-0.2-0.6,0-0.9l3.2-3.2c0.2-0.2,0.6-0.2,0.9,0l0,0c0.2,0.2,0.2,0.6,0,0.9
			l-3.2,3.2C12.2,21.4,11.9,21.4,11.6,21.2z"/>
		<path class="st0" d="M4.9,17.1L4.9,17.1c0.2-0.2,0.6-0.2,0.9,0L9,20.3c0.2,0.2,0.2,0.6,0,0.9l0,0c-0.2,0.2-0.6,0.2-0.9,0L4.9,18
			C4.7,17.8,4.7,17.4,4.9,17.1z"/>
	</g>
</g>
</svg>
